<svg width="164" height="119" viewBox="0 0 164 119" fill="none" xmlns="http://www.w3.org/2000/svg">
<ellipse opacity="0.1" cx="82" cy="96.5" rx="82" ry="12.5" fill="#945CA2"/>
<path fill-rule="evenodd" clip-rule="evenodd" d="M85.5158 73.4917C86.5545 73.4917 87.5066 72.6511 87.5066 71.5583C87.5066 70.5496 86.641 69.6249 85.5158 69.6249C84.477 69.6249 83.5249 70.4655 83.5249 71.5583C83.5249 72.5671 84.477 73.4917 85.5158 73.4917Z" fill="#5C2985"/>
<path fill-rule="evenodd" clip-rule="evenodd" d="M96.855 71.8105C97.8071 72.3149 98.0668 73.4917 97.5475 74.4164C97.0281 75.341 95.8163 75.5932 94.8641 75.0889C93.912 74.5845 93.6523 73.4076 94.1717 72.483C94.7776 71.5583 95.9894 71.3061 96.855 71.8105Z" fill="#5C2985"/>
<path fill-rule="evenodd" clip-rule="evenodd" d="M105.598 79.2078C106.117 80.1325 105.857 81.3093 104.905 81.8137C103.953 82.318 102.741 82.0659 102.222 81.1412C101.702 80.2165 101.962 79.0397 102.914 78.5353C103.866 77.9469 105.078 78.2832 105.598 79.2078Z" fill="#5C2985"/>
<path fill-rule="evenodd" clip-rule="evenodd" d="M109.406 89.7994C109.406 90.8081 108.54 91.7327 107.415 91.7327C106.376 91.7327 105.424 90.8921 105.424 89.7994C105.424 88.7906 106.29 87.866 107.415 87.866C108.54 87.866 109.406 88.7906 109.406 89.7994Z" fill="#5C2985"/>
<path fill-rule="evenodd" clip-rule="evenodd" d="M107.155 100.811C106.636 101.736 105.424 101.988 104.472 101.484C103.52 100.979 103.26 99.8026 103.78 98.8779C104.299 97.9533 105.511 97.7011 106.463 98.2055C107.415 98.7939 107.761 99.9707 107.155 100.811Z" fill="#5C2985"/>
<path fill-rule="evenodd" clip-rule="evenodd" d="M99.6248 109.301C98.6726 109.806 97.4608 109.554 96.9414 108.629C96.4221 107.704 96.6818 106.527 97.6339 106.023C98.5861 105.519 99.7979 105.771 100.317 106.695C100.837 107.62 100.49 108.797 99.6248 109.301Z" fill="#5C2985"/>
<path fill-rule="evenodd" clip-rule="evenodd" d="M88.632 113C87.5933 113 86.6411 112.159 86.6411 111.067C86.6411 110.058 87.5067 109.133 88.632 109.133C89.6707 109.133 90.6228 109.974 90.6228 111.067C90.6228 112.159 89.7572 113 88.632 113Z" fill="#5C2985"/>
<path fill-rule="evenodd" clip-rule="evenodd" d="M77.2926 110.815C76.3405 110.31 76.0808 109.133 76.6001 108.209C77.1195 107.284 78.3313 107.032 79.2835 107.536C80.2356 108.041 80.4953 109.217 79.9759 110.142C79.4566 111.067 78.2448 111.403 77.2926 110.815Z" fill="#5C2985"/>
<path fill-rule="evenodd" clip-rule="evenodd" d="M68.5503 103.501C68.031 102.577 68.2907 101.4 69.2428 100.895C70.195 100.391 71.4068 100.643 71.9261 101.568C72.4455 102.493 72.1858 103.669 71.2337 104.174C70.2815 104.678 69.0697 104.342 68.5503 103.501Z" fill="#5C2985"/>
<path fill-rule="evenodd" clip-rule="evenodd" d="M64.7417 92.8255C64.7417 91.8168 65.6073 90.8922 66.7325 90.8922C67.7713 90.8922 68.7234 91.7328 68.7234 92.8255C68.7234 93.8343 67.8578 94.7589 66.7325 94.7589C65.6938 94.7589 64.7417 93.9183 64.7417 92.8255Z" fill="#5C2985"/>
<path fill-rule="evenodd" clip-rule="evenodd" d="M66.9922 81.8137C67.5116 80.889 68.7234 80.6368 69.6755 81.1412C70.6277 81.6455 70.8874 82.8224 70.368 83.747C69.8487 84.6717 68.6368 85.0079 67.6847 84.4195C66.7325 83.9152 66.4729 82.7383 66.9922 81.8137Z" fill="#5C2985"/>
<path fill-rule="evenodd" clip-rule="evenodd" d="M74.6094 73.3236C75.5615 72.8193 76.7734 73.0714 77.2927 73.9961C77.8121 74.9208 77.5524 76.0976 76.6002 76.602C75.6481 77.1063 74.4363 76.8542 73.9169 75.9295C73.311 75.0048 73.6572 73.828 74.6094 73.3236Z" fill="#5C2985"/>
<path fill-rule="evenodd" clip-rule="evenodd" d="M111.57 17.1712C112.609 17.1712 113.561 16.3306 113.561 15.2378C113.561 14.145 112.695 13.3044 111.57 13.3044C110.531 13.3044 109.579 14.145 109.579 15.2378C109.579 16.3306 110.531 17.1712 111.57 17.1712Z" fill="#5C2985"/>
<path fill-rule="evenodd" clip-rule="evenodd" d="M122.909 15.49C123.861 15.9944 124.121 17.1712 123.602 18.0959C123.082 19.0205 121.87 19.2727 120.918 18.7684C119.966 18.264 119.707 17.0871 120.226 16.1625C120.832 15.2378 122.044 14.9856 122.909 15.49Z" fill="#5C2985"/>
<path fill-rule="evenodd" clip-rule="evenodd" d="M131.652 22.8873C132.171 23.812 131.911 24.9888 130.959 25.4932C130.007 25.9976 128.795 25.7454 128.276 24.8207C127.757 23.8961 128.016 22.7192 128.968 22.2149C129.921 21.6264 131.132 21.9627 131.652 22.8873Z" fill="#5C2985"/>
<path fill-rule="evenodd" clip-rule="evenodd" d="M135.46 33.4789C135.46 34.4876 134.595 35.4123 133.47 35.4123C132.431 35.4123 131.479 34.5717 131.479 33.4789C131.479 32.4702 132.344 31.5455 133.47 31.5455C134.595 31.6296 135.46 32.4702 135.46 33.4789Z" fill="#5C2985"/>
<path fill-rule="evenodd" clip-rule="evenodd" d="M133.21 44.4908C132.69 45.4155 131.479 45.6677 130.526 45.1633C129.574 44.6589 129.315 43.4821 129.834 42.5574C130.353 41.6328 131.565 41.3806 132.517 41.885C133.469 42.4734 133.816 43.6502 133.21 44.4908Z" fill="#5C2985"/>
<path fill-rule="evenodd" clip-rule="evenodd" d="M125.679 52.9809C124.727 53.4852 123.515 53.2331 122.996 52.3084C122.477 51.3837 122.736 50.2069 123.688 49.7025C124.64 49.1982 125.852 49.4503 126.372 50.375C126.891 51.2997 126.545 52.4765 125.679 52.9809Z" fill="#5C2985"/>
<path fill-rule="evenodd" clip-rule="evenodd" d="M114.686 56.6795C113.647 56.6795 112.695 55.8389 112.695 54.7461C112.695 53.7374 113.561 52.8127 114.686 52.8127C115.725 52.8127 116.677 53.6533 116.677 54.7461C116.677 55.8389 115.811 56.6795 114.686 56.6795Z" fill="#5C2985"/>
<path fill-rule="evenodd" clip-rule="evenodd" d="M103.347 54.494C102.395 53.9896 102.135 52.8128 102.655 51.8881C103.174 50.9635 104.386 50.7113 105.338 51.2157C106.29 51.72 106.55 52.8969 106.03 53.8215C105.511 54.7462 104.299 55.0824 103.347 54.494Z" fill="#5C2985"/>
<path fill-rule="evenodd" clip-rule="evenodd" d="M94.6045 47.1807C94.0852 46.2561 94.3449 45.0792 95.297 44.5748C96.2491 44.0705 97.461 44.3227 97.9803 45.2473C98.4997 46.172 98.24 47.3488 97.2879 47.8532C96.3357 48.3576 95.1239 48.0213 94.6045 47.1807Z" fill="#5C2985"/>
<path fill-rule="evenodd" clip-rule="evenodd" d="M90.8826 36.505C90.8826 35.4963 91.7482 34.5717 92.8734 34.5717C93.9121 34.5717 94.8643 35.4123 94.8643 36.505C94.8643 37.5138 93.9987 38.4384 92.8734 38.4384C91.7482 38.4384 90.8826 37.5978 90.8826 36.505Z" fill="#5C2985"/>
<path fill-rule="evenodd" clip-rule="evenodd" d="M93.0467 25.4932C93.566 24.5685 94.7778 24.3163 95.73 24.8207C96.6821 25.3251 96.9418 26.5019 96.4224 27.4266C95.9031 28.3512 94.6913 28.6034 93.7391 28.099C92.787 27.5947 92.5273 26.4178 93.0467 25.4932Z" fill="#5C2985"/>
<path fill-rule="evenodd" clip-rule="evenodd" d="M100.664 17.0031C101.616 16.4988 102.828 16.7509 103.347 17.6756C103.867 18.6003 103.607 19.7771 102.655 20.2815C101.703 20.7858 100.491 20.5337 99.9714 19.609C99.3654 18.6843 99.7117 17.5075 100.664 17.0031Z" fill="#5C2985"/>
<path fill-rule="evenodd" clip-rule="evenodd" d="M46.2182 30.0325C47.6897 30.0325 48.9016 28.8557 48.9016 27.4267C48.9016 25.9976 47.6897 24.8208 46.2182 24.8208C44.7467 24.8208 43.5349 25.9976 43.5349 27.4267C43.5349 28.8557 44.7467 30.0325 46.2182 30.0325Z" fill="#5C2985"/>
<path fill-rule="evenodd" clip-rule="evenodd" d="M61.6258 27.763C62.9241 28.4354 63.3569 30.0326 62.5779 31.2935C61.8854 32.5544 60.2408 32.9747 58.9424 32.2181C57.644 31.5457 57.2112 29.9485 57.9903 28.6876C58.7693 27.5108 60.3274 27.0905 61.6258 27.763Z" fill="#5C2985"/>
<path fill-rule="evenodd" clip-rule="evenodd" d="M73.4842 37.8501C74.1767 39.1111 73.7439 40.6241 72.5321 41.3807C71.2337 42.0532 69.6757 41.6329 68.8966 40.456C68.2042 39.1951 68.637 37.682 69.8488 36.9255C71.1472 36.1689 72.7918 36.5892 73.4842 37.8501Z" fill="#5C2985"/>
<path fill-rule="evenodd" clip-rule="evenodd" d="M78.6777 52.3085C78.6777 53.7375 77.4659 54.9144 75.9944 54.9144C74.5229 54.9144 73.311 53.7375 73.311 52.3085C73.311 50.8795 74.5229 49.7026 75.9944 49.7026C77.4659 49.7026 78.6777 50.8795 78.6777 52.3085Z" fill="#5C2985"/>
<path fill-rule="evenodd" clip-rule="evenodd" d="M75.6482 67.2712C74.9557 68.5322 73.3111 68.9525 72.0127 68.1959C70.7143 67.5234 70.2816 65.9263 71.0606 64.6654C71.7531 63.4045 73.3977 62.9842 74.6961 63.7407C75.9079 64.4973 76.3407 66.0103 75.6482 67.2712Z" fill="#5C2985"/>
<path fill-rule="evenodd" clip-rule="evenodd" d="M65.3475 78.7875C64.0492 79.46 62.4911 79.0397 61.7121 77.8628C61.0196 76.6019 61.4524 75.0888 62.6642 74.3323C63.9626 73.6598 65.5207 74.0801 66.2997 75.257C66.9922 76.5179 66.5594 78.115 65.3475 78.7875Z" fill="#5C2985"/>
<path fill-rule="evenodd" clip-rule="evenodd" d="M50.4594 83.7471C48.9879 83.7471 47.7761 82.5702 47.7761 81.1412C47.7761 79.7122 48.9879 78.5353 50.4594 78.5353C51.9309 78.5353 53.1428 79.7122 53.1428 81.1412C53.0562 82.6543 51.9309 83.7471 50.4594 83.7471Z" fill="#5C2985"/>
<path fill-rule="evenodd" clip-rule="evenodd" d="M34.9656 80.889C33.6672 80.2165 33.2344 78.6193 34.0135 77.3584C34.7059 76.0975 36.3505 75.6772 37.6489 76.4338C38.9473 77.1063 39.3801 78.7034 38.6011 79.9643C37.9086 81.1411 36.264 81.5614 34.9656 80.889Z" fill="#5C2985"/>
<path fill-rule="evenodd" clip-rule="evenodd" d="M23.1068 70.8017C22.4144 69.5408 22.8472 68.0277 24.059 67.2712C25.3574 66.5987 26.9154 67.019 27.6945 68.1959C28.3869 69.4568 27.9541 70.9699 26.7423 71.7264C25.4439 72.4829 23.8859 72.0626 23.1068 70.8017Z" fill="#5C2985"/>
<path fill-rule="evenodd" clip-rule="evenodd" d="M18 56.4275C18 54.9984 19.2118 53.8216 20.6833 53.8216C22.1548 53.8216 23.3666 54.9984 23.3666 56.4275C23.3666 57.8565 22.1548 59.0333 20.6833 59.0333C19.2118 58.9493 18 57.8565 18 56.4275Z" fill="#5C2985"/>
<path fill-rule="evenodd" clip-rule="evenodd" d="M21.0296 41.3807C21.722 40.1198 23.3667 39.6995 24.665 40.4561C25.9634 41.1285 26.3962 42.7257 25.6172 43.9866C24.9247 45.2475 23.2801 45.6678 21.9817 44.9112C20.6833 44.2388 20.2505 42.6416 21.0296 41.3807Z" fill="#5C2985"/>
<path fill-rule="evenodd" clip-rule="evenodd" d="M31.3301 29.8645C32.6285 29.192 34.1865 29.6123 34.9656 30.7891C35.658 32.05 35.2253 33.5631 34.0134 34.3197C32.7151 34.9921 31.157 34.5718 30.378 33.395C29.5989 32.1341 30.0317 30.5369 31.3301 29.8645Z" fill="#5C2985"/>
<path d="M86.5427 62.1761C101.902 57.7747 110.68 42.1146 106.148 27.1983C101.616 12.282 85.49 3.75787 70.1303 8.15921C54.7706 12.5605 45.9931 28.2206 50.5253 43.137C55.0575 58.0533 71.183 66.5774 86.5427 62.1761Z" fill="#FFE379"/>
<path d="M82.3597 59.3128C96.0929 57.1553 105.425 44.5947 103.203 31.2578C100.982 17.921 88.0477 8.85841 74.3144 11.0159C60.5812 13.1734 51.2492 25.734 53.4709 39.0709C55.6925 52.4077 68.6265 61.4703 82.3597 59.3128Z" fill="#FDC300"/>
<path fill-rule="evenodd" clip-rule="evenodd" d="M77.1197 54.4941V50.6273C74.8691 50.3751 73.0514 49.9548 71.5799 49.3664C70.195 48.778 68.8966 47.7693 67.9444 46.3403C66.9057 44.9953 66.2998 43.23 66.1267 41.2966L70.7143 40.5401C71.0606 42.6416 71.6665 44.1547 72.6186 45.0793C73.917 46.4243 75.3885 47.1809 77.2062 47.349V35.3284C75.3019 34.9081 73.3976 34.2356 71.4934 33.3109C70.0219 32.6384 68.8966 31.7138 68.1176 30.4529C67.3385 29.276 66.9057 27.847 66.9057 26.3339C66.9057 23.5599 68.031 21.3743 70.3681 19.6931C71.9261 18.5163 74.1767 17.8438 77.2062 17.5916V15.7423H79.8896V17.5916C82.4863 17.8438 84.5637 18.4322 86.1218 19.6091C88.1126 21.0381 89.3245 22.9715 89.6707 25.4092L84.9965 25.9977C84.7368 24.4846 84.1309 23.3077 83.3519 22.4671C82.4863 21.6265 81.3611 21.1222 79.8896 20.87V31.9659C82.1401 32.4703 83.6981 32.8065 84.3906 33.1428C85.7755 33.6471 86.9874 34.3196 87.853 35.0762C88.7185 35.8327 89.411 36.7574 89.9304 37.7661C90.3632 38.7748 90.6228 39.9517 90.6228 41.1285C90.6228 43.8184 89.5841 46.004 87.5933 47.7693C85.6024 49.5345 83.0057 50.4592 79.803 50.6273V54.4941H77.1197ZM77.1197 20.7859C75.3885 21.0381 74.0036 21.6265 72.9649 22.5512C71.9261 23.5599 71.4068 24.6527 71.4068 25.9977C71.4068 27.3426 71.8396 28.4354 72.7052 29.276C73.5708 30.2007 75.0423 30.7891 77.1197 31.2935V20.7859ZM79.803 47.433C81.5342 47.2649 83.0057 46.5924 84.2175 45.4996C85.3428 44.4069 85.9487 42.9778 85.9487 41.3807C85.9487 39.9517 85.5159 38.8589 84.7368 38.0183C83.9578 37.1777 82.3132 36.5052 79.8896 35.9168V47.433H79.803Z" fill="#FFE379"/>
<path d="M132.498 89.2374C143.822 78.2403 143.822 60.4104 132.498 49.4132C121.174 38.4161 102.814 38.4161 91.4897 49.4132C80.1657 60.4104 80.1657 78.2403 91.4897 89.2374C102.814 100.235 121.174 100.235 132.498 89.2374Z" fill="#FFE379"/>
<path d="M135.298 78.6503C140.591 66.1565 134.453 51.8611 121.588 46.7207C108.723 41.5802 94.0025 47.5413 88.7093 60.0351C83.416 72.5289 89.5543 86.8243 102.419 91.9647C115.285 97.1052 130.005 91.1441 135.298 78.6503Z" fill="#FDC300"/>
<path fill-rule="evenodd" clip-rule="evenodd" d="M110.791 88.7065V84.8398C108.541 84.5876 106.723 84.1673 105.251 83.5789C103.866 82.9904 102.568 81.9817 101.616 80.5527C100.577 79.2077 99.9712 77.4425 99.7981 75.5091L104.386 74.7525C104.732 76.854 105.338 78.3671 106.29 79.2918C107.588 80.6368 109.06 81.3933 110.878 81.5614V69.5408C108.973 69.1205 107.069 68.448 105.165 67.5234C103.693 66.8509 102.568 65.9262 101.789 64.6653C101.01 63.4885 100.577 62.0594 100.577 60.5464C100.577 57.7724 101.702 55.5868 104.039 53.9056C105.598 52.7288 107.848 52.0563 110.878 51.8041V49.9548H113.561V51.8041C116.158 52.0563 118.235 52.6447 119.793 53.8215C121.784 55.2506 122.996 57.184 123.342 59.6217L118.668 60.2101C118.408 58.697 117.802 57.5202 117.023 56.6796C116.158 55.839 115.032 55.3346 113.561 55.0824V66.1784C115.811 66.6828 117.37 67.019 118.062 67.3552C119.447 67.8596 120.659 68.5321 121.524 69.2886C122.39 70.0452 123.082 70.9698 123.602 71.9786C124.035 72.9873 124.294 74.1641 124.294 75.341C124.294 78.0309 123.256 80.2165 121.265 81.9817C119.274 83.747 116.677 84.6717 113.474 84.8398V88.7065H110.791ZM110.791 54.9984C109.06 55.2506 107.675 55.839 106.636 56.7637C105.598 57.7724 105.078 58.8652 105.078 60.2101C105.078 61.5551 105.511 62.6479 106.377 63.4885C107.242 64.4131 108.714 65.0016 110.791 65.5059V54.9984ZM113.474 81.5614C115.206 81.3933 116.677 80.7208 117.889 79.628C119.014 78.5353 119.62 77.1062 119.62 75.5091C119.62 74.0801 119.187 72.9873 118.408 72.1467C117.629 71.3061 115.985 70.6336 113.561 70.0452V81.5614H113.474Z" fill="#FFE379"/>
<path d="M71.4112 110.148C83.0372 105.501 88.5828 92.5815 83.7976 81.291C79.0124 70.0006 65.7085 64.6151 54.0825 69.2621C42.4565 73.9092 36.9109 86.8291 41.6961 98.1195C46.4813 109.41 59.7852 114.795 71.4112 110.148Z" fill="#FFE379"/>
<path d="M67.2797 108.449C77.9369 106.019 84.5476 95.6588 82.045 85.3092C79.5425 74.9595 68.8743 68.5397 58.2171 70.97C47.5598 73.4003 40.9491 83.7605 43.4517 94.1102C45.9543 104.46 56.6224 110.88 67.2797 108.449Z" fill="#FDC300"/>
<path fill-rule="evenodd" clip-rule="evenodd" d="M61.7988 104.93V101.904C59.9811 101.736 58.5961 101.4 57.4709 100.895C56.3456 100.391 55.3935 99.6344 54.6144 98.5416C53.8354 97.4488 53.3161 96.1039 53.2295 94.5908L56.7784 94.0024C57.0381 95.5995 57.5574 96.8604 58.2499 97.617C59.2886 98.7098 60.4139 99.2982 61.8854 99.3822V89.8834C60.4139 89.5472 58.9424 89.0428 57.3843 88.2863C56.259 87.7819 55.3935 87.0254 54.7875 86.0166C54.1816 85.092 53.8354 83.9992 53.8354 82.7383C53.8354 80.5527 54.701 78.8715 56.5187 77.5266C57.7305 76.6019 59.4617 76.0975 61.8854 75.8453V74.4163H63.8762V75.9294C65.9536 76.0975 67.5983 76.6019 68.8101 77.4425C70.3681 78.5353 71.3203 80.0484 71.58 81.9817L67.9445 82.4861C67.7714 81.3093 67.252 80.3846 66.6461 79.7121C65.9536 79.0396 65.088 78.6193 63.8762 78.4512V87.1935C65.694 87.6138 66.8192 87.866 67.4251 88.1182C68.5504 88.5385 69.416 89.0428 70.1085 89.6312C70.8009 90.2197 71.3203 90.8921 71.7531 91.7327C72.0993 92.5734 72.2724 93.414 72.2724 94.4227C72.2724 96.5242 71.4934 98.2894 69.9353 99.6344C68.3773 101.063 66.2999 101.736 63.8762 101.904V104.93H61.7988ZM61.7988 78.4512C60.4139 78.6193 59.2886 79.1237 58.5096 79.8802C57.7305 80.6368 57.2978 81.5615 57.2978 82.5702C57.2978 83.5789 57.644 84.5036 58.3365 85.176C59.0289 85.8485 60.1542 86.4369 61.7988 86.7732V78.4512ZM63.8762 99.3822C65.2612 99.2141 66.3864 98.7098 67.3386 97.8691C68.2042 97.0285 68.7235 95.9358 68.7235 94.5908C68.7235 93.498 68.3773 92.5733 67.7714 91.9849C67.1655 91.3124 65.8671 90.8081 63.9628 90.3878V99.3822H63.8762Z" fill="#FFE379"/>
</svg>
