<svg width="152" height="155" viewBox="0 0 152 155" fill="none" xmlns="http://www.w3.org/2000/svg">
<ellipse opacity="0.1" cx="75" cy="117.5" rx="69" ry="10.5" fill="#945CA2"/>
<g clip-path="url(#clip0)">
<path fill-rule="evenodd" clip-rule="evenodd" d="M118.223 54.3007C117.216 54.2199 115.962 54.3391 114.739 54.675C115.233 53.5017 115.556 52.2968 115.632 51.2921C97.629 54.8467 109.413 72.8698 119.948 57.8165C118.956 57.4574 117.717 57.2985 116.447 57.3094C117.235 56.2608 117.868 55.289 118.223 54.3007Z" fill="#EB5961"/>
<path fill-rule="evenodd" clip-rule="evenodd" d="M87.3376 31.0926C87.7574 32.0836 87.9298 33.2748 87.9474 34.5427C88.9371 33.7422 90.0044 33.0965 90.9484 32.7443C92.5435 51.0252 71.9533 44.7218 83.4807 30.4142C84.1016 31.2668 84.599 32.4127 84.9418 33.6353C85.6677 32.5401 86.487 31.7081 87.3376 31.0926Z" fill="#EB5961"/>
<path fill-rule="evenodd" clip-rule="evenodd" d="M107.716 58.8557C110.169 71.6045 103.91 78.7721 91.4476 80.5062C89.7541 68.0384 94.3858 59.9375 107.716 58.8557Z" fill="#799F1F"/>
<path fill-rule="evenodd" clip-rule="evenodd" d="M107.716 58.8557C109.044 65.3542 107.984 70.6382 104.615 74.4763C101.725 77.8057 96.9744 79.7371 91.4012 80.5679C92.0965 79.6427 107.485 59.1641 107.716 58.8557Z" fill="#CCD133"/>
<path fill-rule="evenodd" clip-rule="evenodd" d="M85.6998 42.3119C88.1526 55.0607 81.8934 62.2282 69.4311 63.9624C67.7375 51.4945 72.3692 43.3936 85.6998 42.3119Z" fill="#799F1F"/>
<path fill-rule="evenodd" clip-rule="evenodd" d="M85.6999 42.3118C87.0272 48.8103 85.9677 54.0944 82.5986 57.9324C79.7085 61.2619 75.02 63.2399 69.3848 64.024C70.0181 63.0522 85.4682 42.6203 85.6999 42.3118Z" fill="#CCD133"/>
<path fill-rule="evenodd" clip-rule="evenodd" d="M70.0991 28.8519C71.0934 30.7571 71.7789 33.2025 72.1393 35.693C73.9632 33.7822 75.8962 32.2429 77.8455 31.1984C85.7439 68.2098 42.2337 60.5115 61.9688 28.4367C63.4736 30.05 64.778 32.1883 65.8506 34.6349C67.1164 32.3047 68.5376 30.2843 70.0991 28.8519Z" fill="#F2959B"/>
<path fill-rule="evenodd" clip-rule="evenodd" d="M124.986 70.0952C122.879 69.6703 120.34 69.6923 117.847 70.0391C119.175 67.7555 120.116 65.4705 120.576 63.3076C82.8289 66.0195 102.33 105.669 127.647 77.7889C125.678 76.7924 123.262 76.1345 120.613 75.785C122.499 73.9208 124.044 71.9936 124.986 70.0952Z" fill="#F2959B"/>
<path fill-rule="evenodd" clip-rule="evenodd" d="M100.895 44.9475C100.915 47.375 100.362 50.0478 99.4372 52.8276C102.176 51.8941 104.963 51.2855 107.394 51.2786C96.4844 92.0119 56.9163 62.2794 93.0055 40.4668C93.6753 42.8038 93.866 45.6494 93.7315 48.5402C96.098 46.9405 98.5578 45.6041 100.895 44.9475Z" fill="#EB5961"/>
<path fill-rule="evenodd" clip-rule="evenodd" d="M121.171 84.9865C116.44 80.1768 111.594 80.6855 107.142 85.4474C111.981 89.8554 116.797 90.2898 121.171 84.9865Z" fill="#799F1F"/>
<path fill-rule="evenodd" clip-rule="evenodd" d="M121.171 84.9865C118.766 82.5042 116.287 81.4132 113.608 81.6202C111.317 81.8286 109.089 83.2432 107.08 85.4007C107.746 85.4185 120.954 85.0167 121.171 84.9865Z" fill="#CCD133"/>
<path fill-rule="evenodd" clip-rule="evenodd" d="M57.729 48.4134L109.949 87.6527L59.8737 116.714L58.8079 136.47L25.0697 111.118L43.6868 104.551L57.729 48.4134Z" fill="#812C93"/>
<path fill-rule="evenodd" clip-rule="evenodd" d="M57.729 48.4134L83.8389 68.0331L41.9388 123.794L25.0697 111.118L43.6868 104.551L57.729 48.4134Z" fill="#A85DBB"/>
<path fill-rule="evenodd" clip-rule="evenodd" d="M44.6151 104.09L60.1198 115.741C60.4919 116.02 60.5702 116.562 60.2921 116.932L59.6432 117.795C59.3651 118.165 58.8233 118.241 58.4512 117.961L42.9465 106.311C42.5744 106.031 42.496 105.49 42.7741 105.119L43.423 104.256C43.7011 103.886 44.243 103.81 44.6151 104.09Z" fill="#FFE400"/>
<path fill-rule="evenodd" clip-rule="evenodd" d="M57.2912 36.9862C63.2274 40.1921 64.0872 44.9882 60.752 50.5889C55.2336 47.2144 53.4141 42.6623 57.2912 36.9862Z" fill="#799F1F"/>
<path fill-rule="evenodd" clip-rule="evenodd" d="M57.2915 36.9858C60.3447 38.6046 62.0826 40.6825 62.629 43.3129C63.0665 45.5718 62.3275 48.1049 60.8143 50.6352C60.6739 50.0472 57.3228 37.2024 57.2915 36.9858Z" fill="#CCD133"/>
<path fill-rule="evenodd" clip-rule="evenodd" d="M111.492 38.7229C112.268 39.8853 111.945 41.4766 110.723 42.199C109.501 42.9214 108.076 42.6226 107.3 41.4603C106.524 40.2979 106.846 38.7066 108.068 37.9842C109.228 37.2152 110.824 37.5455 111.492 38.7229Z" fill="#FDC300"/>
<path fill-rule="evenodd" clip-rule="evenodd" d="M125.979 44.1081C126.074 45.5308 125.023 46.6713 123.599 46.759C122.174 46.8468 121.027 45.7914 120.931 44.3686C120.836 42.9458 121.887 41.8054 123.311 41.7176C124.736 41.6299 125.946 42.7319 125.979 44.1081Z" fill="#FDC300"/>
<path fill-rule="evenodd" clip-rule="evenodd" d="M135.879 55.9864C135.23 57.2365 133.698 57.7258 132.505 57.1186C131.249 56.4648 130.751 54.9324 131.353 53.744C132.001 52.4939 133.534 52.0045 134.727 52.6117C136.029 53.2038 136.527 54.7363 135.879 55.9864Z" fill="#FDC300"/>
<path fill-rule="evenodd" clip-rule="evenodd" d="M138.521 71.1942C137.361 71.9632 135.766 71.6329 135.036 70.4089C134.26 69.2466 134.582 67.6552 135.804 66.9328C136.964 66.1638 138.56 66.4941 139.29 67.7181C140.004 68.8339 139.681 70.4252 138.521 71.1942Z" fill="#FDC300"/>
<path fill-rule="evenodd" clip-rule="evenodd" d="M133.188 85.5236C131.763 85.6114 130.616 84.556 130.52 83.1332C130.425 81.7104 131.476 80.5699 132.901 80.4822C134.325 80.3944 135.473 81.4499 135.568 82.8726C135.663 84.2954 134.566 85.4976 133.188 85.5236Z" fill="#FDC300"/>
<path fill-rule="evenodd" clip-rule="evenodd" d="M103.615 32.8044C102.283 32.3823 100.844 33.1348 100.49 34.5096C100.074 35.8378 100.835 37.2784 102.214 37.6389C103.546 38.061 104.985 37.3085 105.339 35.9337C105.693 34.5589 104.932 33.1183 103.615 32.8044Z" fill="#FDC300"/>
<path fill-rule="evenodd" clip-rule="evenodd" d="M94.4115 20.3874C93.0183 20.6917 92.2154 22.0185 92.5274 23.4112C92.8395 24.8038 94.1726 25.6125 95.5657 25.3082C96.9588 25.0038 97.7618 23.677 97.4497 22.2844C97.1376 20.8917 95.7426 20.0364 94.4115 20.3874Z" fill="#FDC300"/>
<path fill-rule="evenodd" clip-rule="evenodd" d="M80.2477 14.1839C79.2737 15.0927 79.23 16.7005 80.2073 17.7244C81.1846 18.7483 82.7951 18.8003 83.7691 17.8915C84.7894 16.9211 84.8331 15.3132 83.9179 14.3359C82.8786 13.2654 81.2681 13.2134 80.2477 14.1839Z" fill="#FDC300"/>
<path fill-rule="evenodd" clip-rule="evenodd" d="M64.967 15.9236C64.5511 17.2518 65.3123 18.6924 66.6911 19.0528C68.0235 19.475 69.4623 18.7224 69.8161 17.3476C70.232 16.0194 69.4708 14.5788 68.092 14.2184C66.7596 13.7962 65.3208 14.5487 64.967 15.9236Z" fill="#FDC300"/>
<path fill-rule="evenodd" clip-rule="evenodd" d="M52.6253 24.9869C52.9374 26.3795 54.2705 27.1882 55.6636 26.8839C57.0567 26.5796 57.8597 25.2527 57.5476 23.8601C57.2356 22.4675 55.9025 21.6588 54.5094 21.9631C53.1162 22.2674 52.2669 23.656 52.6253 24.9869Z" fill="#FDC300"/>
</g>
<defs>
<clipPath id="clip0">
<rect width="102.634" height="115.116" fill="white" transform="translate(69.7258 0.679932) rotate(36.9222)"/>
</clipPath>
</defs>
</svg>
