<svg width="164" height="103" viewBox="0 0 164 103" fill="none" xmlns="http://www.w3.org/2000/svg">
<g clip-path="url(#clip0)">
<path d="M51.9489 32.163L50.6621 19.9906C50.5532 18.9597 49.629 18.2123 48.5981 18.3212L42.378 18.9788C41.347 19.0878 40.5996 20.0119 40.7086 21.0429L41.9954 33.2152" fill="#E5E9EA"/>
<path d="M120.553 27.1538L125.368 72.6963C125.698 75.8187 123.434 78.6178 120.312 78.9479L46.4283 86.7585C43.3059 87.0886 40.5068 84.8248 40.1767 81.7023L35.3622 36.1598C35.0321 33.0373 37.2959 30.2383 40.4184 29.9082L51.5981 28.7263C54.006 28.4717 55.9903 26.7201 56.539 24.361L57.9731 18.1864C58.5218 15.8271 60.5041 14.0741 62.9139 13.8193L95.8945 10.3327C98.3025 10.0782 100.607 11.378 101.637 13.5705L104.332 19.3085C105.362 21.5009 107.667 22.7989 110.075 22.5444L114.302 22.0976C117.424 21.7675 120.223 24.0313 120.553 27.1538Z" fill="#FDC300"/>
<path d="M121.582 36.8865L125.368 72.6964C125.698 75.8189 123.434 78.618 120.312 78.9481L46.4284 86.7587C43.3059 87.0888 40.5069 84.8249 40.1768 81.7025L36.3911 45.8925L121.582 36.8865Z" fill="#812C93"/>
<path d="M82.8094 77.5505C95.8192 76.1752 105.251 64.5138 103.875 51.5041C102.5 38.4943 90.8387 29.0628 77.8289 30.4381C64.8192 31.8134 55.3876 43.4748 56.763 56.4846C58.1383 69.4943 69.7997 78.9258 82.8094 77.5505Z" fill="#E5E9EA"/>
<path d="M96.975 52.2335C97.4935 57.1382 95.8403 61.7712 92.788 65.1775C90.1164 68.1585 86.3762 70.1975 82.0802 70.6517C77.7859 71.1056 73.7004 69.8938 70.4645 67.5373C66.7678 64.8463 64.1804 60.6597 63.6619 55.7551C63.1434 50.8504 64.7982 46.2154 67.8508 42.8127C70.5224 39.8299 74.2642 37.7924 78.5585 37.3384C82.8545 36.8843 86.9383 38.0963 90.1742 40.4528C93.8711 43.144 96.4565 47.3289 96.975 52.2335Z" fill="#566368"/>
<path d="M90.8508 40.9714C94.6855 44.0729 96.7926 48.518 97.0429 53.0849C92.5246 53.7949 87.7371 52.6639 83.9025 49.5625C80.0678 46.4611 77.9607 42.016 77.7117 37.4503C82.2285 36.7391 87.0161 37.8702 90.8508 40.9714Z" fill="#6F7B7F"/>
<path d="M76.7343 58.4255C80.569 61.527 82.6761 65.9721 82.9264 70.539C78.4094 71.2502 73.6195 70.1195 69.785 67.0179C65.9503 63.9165 63.8429 59.4688 63.5952 54.9042C68.1122 54.1928 72.8996 55.3239 76.7343 58.4255Z" fill="#6F7B7F"/>
<path d="M82.2175 71.9549C72.3141 73.0019 63.4053 65.7965 62.3584 55.8932C61.3115 45.9899 68.5168 37.0811 78.4201 36.0342C88.3234 34.9872 97.2322 42.1924 98.2791 52.0959C99.3261 61.9993 92.1208 70.908 82.2175 71.9549ZM78.6958 38.642C70.2304 39.5369 64.0713 47.1522 64.9662 55.6175C65.8611 64.0829 73.4764 70.242 81.9418 69.3471C90.4072 68.4522 96.5663 60.8369 95.6713 52.3716C94.7764 43.9062 87.1612 37.7471 78.6958 38.642Z" fill="#435054"/>
<path d="M79.6119 47.3082C75.925 47.698 73.2426 51.0146 73.6324 54.7016C74.0222 58.3886 77.3387 61.0709 81.0256 60.6811C84.7124 60.2913 87.3948 56.9748 87.0051 53.2879C86.6153 49.601 83.2987 46.9185 79.6119 47.3082Z" fill="#435054"/>
<path d="M85.6846 23.8051L95.9313 22.7219C97.2784 22.5794 98.2551 21.372 98.1127 20.0247L97.829 17.3405C97.6865 15.9934 96.4791 15.0167 95.1318 15.1591L84.8851 16.2424C83.538 16.3848 82.5612 17.5923 82.7037 18.9395L82.9874 21.6237C83.1298 22.9708 84.3375 23.9475 85.6846 23.8051Z" fill="#E5E9EA"/>
<path d="M96.0691 24.0256L85.8223 25.1089C83.7583 25.3271 81.9016 23.8254 81.6833 21.7613L81.3996 19.0775C81.1814 17.0134 82.6831 15.1567 84.7472 14.9385L94.9939 13.8553C97.058 13.6371 98.9147 15.1388 99.1329 17.2028L99.4166 19.8868C99.6347 21.9509 98.133 23.8075 96.0691 24.0256ZM85.0228 17.5463C84.3967 17.6125 83.9414 18.1757 84.0076 18.8016L84.2913 21.4856C84.3575 22.1118 84.9205 22.5671 85.5466 22.5009L95.7934 21.4177C96.4195 21.3515 96.8748 20.7883 96.8086 20.1624L96.5249 17.4785C96.4587 16.8524 95.8956 16.3971 95.2696 16.4633C95.2696 16.4631 85.0228 17.5463 85.0228 17.5463Z" fill="#E29A4B"/>
<path d="M56.4594 80.8179C59.0635 80.5426 60.9513 78.2084 60.676 75.6043C60.4008 73.0002 58.0665 71.1123 55.4624 71.3876C52.8584 71.6629 50.9705 73.9971 51.2458 76.6012C51.5211 79.2053 53.8553 81.0932 56.4594 80.8179Z" fill="#945CA2"/>
</g>
<ellipse opacity="0.1" cx="82" cy="90.5" rx="82" ry="12.5" fill="#945CA2"/>
<defs>
<clipPath id="clip0">
<rect width="85.6659" height="85.6659" fill="white" transform="translate(32.5498 9.55579) rotate(-6.03462)"/>
</clipPath>
</defs>
</svg>
