<svg width="176" height="105" viewBox="0 0 176 105" fill="none" xmlns="http://www.w3.org/2000/svg">
<g clip-path="url(#clip0)">
<path fill-rule="evenodd" clip-rule="evenodd" d="M40.0551 27.567H112.155C115.177 27.567 117.636 30.0409 117.636 33.0803V33.151C117.988 33.151 118.269 33.0803 118.62 33.0803H124.804C131.269 33.0803 134.502 38.8058 136.61 44.9553L141.881 60.5059L151.086 66.5141L150.805 66.5848C151.508 67.0089 152 67.7158 152 68.6347V81.6406C152 82.9129 150.946 83.9732 149.681 83.9732H142.302C142.302 77.2582 136.891 71.8155 130.215 71.8155C123.539 71.8155 118.128 77.2582 118.128 83.9732H112.225H109.133H71.0455C71.0455 77.2582 65.6344 71.8155 58.9585 71.8155C52.2826 71.8155 46.8716 77.2582 46.8716 83.9732H40.1253C37.1036 83.9732 34.644 81.4992 34.644 78.4598V33.0803C34.5738 30.0409 37.0333 27.567 40.0551 27.567Z" fill="#812C93"/>
<path fill-rule="evenodd" clip-rule="evenodd" d="M119.393 37.8869C132.323 37.0387 136.399 58.8802 136.47 60.5767C136.47 61.4249 135.837 62.061 134.994 62.061H119.393C118.55 62.061 117.917 61.4249 117.917 60.5767V39.3713C117.917 38.5231 118.55 37.9576 119.393 37.8869Z" fill="#52BEC8"/>
<path fill-rule="evenodd" clip-rule="evenodd" d="M58.9584 72.9464C65.0019 72.9464 69.921 77.8943 69.921 83.9732C69.921 90.0521 65.0019 95 58.9584 95C52.915 95 47.9958 90.0521 47.9958 83.9732C47.9958 77.8943 52.915 72.9464 58.9584 72.9464ZM58.9584 78.6719C56.0772 78.6719 53.688 81.0751 53.688 83.9732C53.688 86.8713 56.0772 89.2746 58.9584 89.2746C61.8396 89.2746 64.2289 86.8713 64.2289 83.9732C64.2289 81.0045 61.8396 78.6719 58.9584 78.6719Z" fill="#333333"/>
<path fill-rule="evenodd" clip-rule="evenodd" d="M130.215 72.9464C136.259 72.9464 141.178 77.8943 141.178 83.9732C141.178 90.0521 136.259 95 130.215 95C124.172 95 119.253 90.0521 119.253 83.9732C119.253 77.8943 124.172 72.9464 130.215 72.9464ZM130.215 78.6719C127.334 78.6719 124.945 81.0751 124.945 83.9732C124.945 86.8713 127.334 89.2746 130.215 89.2746C133.096 89.2746 135.486 86.8713 135.486 83.9732C135.486 81.0045 133.096 78.6719 130.215 78.6719Z" fill="#333333"/>
<path fill-rule="evenodd" clip-rule="evenodd" d="M68.5155 64.0401C67.1101 62.6264 67.8831 59.4456 70.3426 56.901C66.829 56.8303 64.0181 55.2046 64.0181 53.1547C64.0181 51.1049 66.829 49.4791 70.3426 49.4084C67.8831 46.9345 67.1101 43.7537 68.5155 42.2693C69.921 40.8556 73.0833 41.6331 75.6131 44.1071C75.6834 40.5729 77.2997 37.7455 79.3376 37.7455C81.3755 37.7455 82.9918 40.5729 83.062 44.1071C85.5216 41.6331 88.6839 40.8556 90.1596 42.2693C91.5651 43.683 90.7921 46.8638 88.3325 49.4084C91.8462 49.4791 94.6571 51.1049 94.6571 53.1547C94.6571 55.2046 91.8462 56.8303 88.3325 56.901C90.7921 59.375 91.5651 62.5558 90.1596 64.0401C88.7542 65.4538 85.5919 64.6763 83.062 62.2023C82.9918 65.7366 81.3755 68.5639 79.3376 68.5639C77.2997 68.5639 75.6834 65.7366 75.6131 62.2023C73.0833 64.6056 69.9913 65.4538 68.5155 64.0401Z" fill="#E0A2C9"/>
<path fill-rule="evenodd" clip-rule="evenodd" d="M79.3377 58.6681C82.3595 58.6681 84.819 56.1942 84.819 53.1547C84.819 50.1153 82.3595 47.6414 79.3377 47.6414C76.316 47.6414 73.8564 50.1153 73.8564 53.1547C73.8564 56.1942 76.316 58.6681 79.3377 58.6681Z" fill="#FFE400"/>
<path fill-rule="evenodd" clip-rule="evenodd" d="M101.193 43.6123C96.6248 41.3504 91.776 43.683 90.23 48.4896C94.868 50.4687 99.7168 48.6309 101.193 43.6123Z" fill="#CCD133"/>
<path fill-rule="evenodd" clip-rule="evenodd" d="M60.2937 45.2381C63.5965 43.6124 67.0399 45.3088 68.094 48.7016C64.7912 50.186 61.2775 48.843 60.2937 45.2381Z" fill="#CCD133"/>
<path fill-rule="evenodd" clip-rule="evenodd" d="M74.8401 64.3936C75.8942 67.7865 73.786 70.9673 70.3427 71.4621C69.4291 68.0692 71.1859 64.8884 74.8401 64.3936Z" fill="#945CA2"/>
<path fill-rule="evenodd" clip-rule="evenodd" d="M97.8195 61.2127C96.9059 57.7492 93.4625 56.2648 90.23 57.6078C91.2841 61.0714 94.5166 62.7678 97.8195 61.2127Z" fill="#945CA2"/>
<path fill-rule="evenodd" clip-rule="evenodd" d="M20.2382 46.2277H29.2331C30.2872 46.2277 31.1305 47.0759 31.1305 48.1361C31.1305 49.1964 30.2872 50.0446 29.2331 50.0446H20.2382C19.1841 50.0446 18.3408 49.1964 18.3408 48.1361C18.3408 47.0759 19.2544 46.2277 20.2382 46.2277Z" fill="#945CA2"/>
<path fill-rule="evenodd" clip-rule="evenodd" d="M14.8974 53.3668H29.3033C30.3574 53.3668 31.2007 54.215 31.2007 55.2753C31.2007 56.3356 30.3574 57.1838 29.3033 57.1838H14.8974C13.8433 57.1838 13 56.3356 13 55.2753C13 54.2857 13.8433 53.3668 14.8974 53.3668Z" fill="#CCD133"/>
<path fill-rule="evenodd" clip-rule="evenodd" d="M21.0111 60.2938H29.3034C30.3575 60.2938 31.2007 61.142 31.2007 62.2023C31.2007 63.2626 30.3575 64.1108 29.3034 64.1108H21.0111C19.957 64.1108 19.1138 63.2626 19.1138 62.2023C19.1138 61.142 19.957 60.2938 21.0111 60.2938Z" fill="#E0A2C9"/>
<path fill-rule="evenodd" clip-rule="evenodd" d="M91.7761 25.0223C91.2139 24.4568 91.5653 23.1845 92.5491 22.1242C91.1437 22.1242 90.0193 21.4174 90.0193 20.6398C90.0193 19.7916 91.1437 19.1555 92.5491 19.1555C91.5653 18.1659 91.2139 16.8936 91.7761 16.2574C92.3383 15.6919 93.6032 16.0454 94.6573 17.0349C94.6573 15.6212 95.36 14.4903 96.1331 14.4903C96.9763 14.4903 97.6088 15.6212 97.6088 17.0349C98.5926 16.0454 99.8575 15.6919 100.49 16.2574C101.052 16.8229 100.701 18.0952 99.717 19.1555C101.122 19.1555 102.247 19.8623 102.247 20.6398C102.247 21.4881 101.122 22.1242 99.717 22.1242C100.701 23.1138 101.052 24.3861 100.49 25.0223C99.9278 25.5878 98.6629 25.2343 97.6088 24.2448C97.6088 25.6584 96.9061 26.7894 96.1331 26.7894C95.2898 26.7894 94.6573 25.6584 94.6573 24.2448C93.6032 25.305 92.3383 25.5878 91.7761 25.0223ZM95.079 20.2157C95.1492 20.3571 95.2195 20.4985 95.2195 20.6398C95.2195 20.7812 95.1492 20.9226 95.079 21.064C95.2195 21.1346 95.36 21.2053 95.5006 21.276C95.6411 21.4174 95.7114 21.5587 95.7114 21.7001C95.852 21.6294 95.9925 21.5587 96.1331 21.5587C96.2736 21.5587 96.4141 21.6294 96.5547 21.7001C96.625 21.5587 96.6952 21.4174 96.7655 21.276C96.9061 21.1346 97.0466 21.064 97.1871 21.064C97.1169 20.9226 97.0466 20.7812 97.0466 20.6398C97.0466 20.4985 97.1169 20.3571 97.1871 20.2157C97.0466 20.1451 96.9061 20.0744 96.7655 20.0037C96.625 19.8623 96.5547 19.721 96.5547 19.5796C96.4141 19.6503 96.2736 19.7209 96.1331 19.7209C95.9925 19.7209 95.852 19.6503 95.7114 19.5796C95.6411 19.721 95.5709 19.8623 95.5006 20.0037C95.36 20.0744 95.2195 20.1451 95.079 20.2157Z" fill="#EB5961"/>
<path fill-rule="evenodd" clip-rule="evenodd" d="M96.1331 22.831C97.3277 22.831 98.3115 21.8415 98.3115 20.6398C98.3115 19.4382 97.3277 18.4486 96.1331 18.4486C94.9384 18.4486 93.9546 19.4382 93.9546 20.6398C93.9546 21.8415 94.9384 22.831 96.1331 22.831Z" fill="#FFE400"/>
<path fill-rule="evenodd" clip-rule="evenodd" d="M66.1966 12.2284C65.5641 11.5922 65.9155 10.1079 67.0399 8.97691C65.4236 8.97691 64.1587 8.19938 64.1587 7.28048C64.1587 6.36158 65.4236 5.58405 67.0399 5.58405C65.9155 4.4531 65.5641 2.96873 66.1966 2.33257C66.8291 1.69641 68.3048 2.04983 69.4292 3.18078C69.4292 1.55504 70.2022 0.282715 71.1157 0.282715C72.0293 0.282715 72.8023 1.55504 72.8023 3.18078C73.9266 2.04983 75.4024 1.69641 76.0348 2.33257C76.6673 2.96873 76.3159 4.4531 75.1916 5.58405C76.8078 5.58405 78.0727 6.36158 78.0727 7.28048C78.0727 8.19938 76.8078 8.97691 75.1916 8.97691C76.3159 10.1079 76.6673 11.5922 76.0348 12.2284C75.4024 12.8646 73.9266 12.5111 72.8023 11.3802C72.8023 13.0059 72.0293 14.2783 71.1157 14.2783C70.2022 14.2783 69.4292 13.0059 69.4292 11.3802C68.3048 12.5111 66.8291 12.8646 66.1966 12.2284ZM69.9211 6.71501C69.9913 6.85638 70.0616 7.06843 70.0616 7.2098C70.0616 7.42185 69.9913 7.56322 69.9211 7.70459C70.1319 7.77527 70.2724 7.84596 70.413 7.98733C70.5535 8.1287 70.6238 8.27007 70.6941 8.48212C70.8346 8.41144 71.0454 8.34075 71.186 8.34075C71.3968 8.34075 71.5374 8.41144 71.6779 8.48212C71.7482 8.27007 71.8184 8.1287 71.959 7.98733C72.0995 7.84596 72.2401 7.77527 72.4509 7.70459C72.3806 7.56322 72.3104 7.35117 72.3104 7.2098C72.3104 6.99774 72.3806 6.85638 72.4509 6.71501C72.2401 6.64432 72.0995 6.57364 71.959 6.43227C71.8184 6.2909 71.7482 6.14953 71.6779 5.93748C71.5374 6.00816 71.3265 6.07885 71.186 6.07885C70.9752 6.07885 70.8346 6.00816 70.6941 5.93748C70.6238 6.14953 70.5535 6.2909 70.413 6.43227C70.2724 6.57364 70.0616 6.64432 69.9211 6.71501Z" fill="#E0A2C9"/>
<path fill-rule="evenodd" clip-rule="evenodd" d="M71.1861 9.75439C72.5915 9.75439 73.7159 8.62343 73.7159 7.20974C73.7159 5.79605 72.5915 4.6651 71.1861 4.6651C69.7806 4.6651 68.6562 5.79605 68.6562 7.20974C68.6562 8.62343 69.7806 9.75439 71.1861 9.75439Z" fill="#FFE400"/>
<path fill-rule="evenodd" clip-rule="evenodd" d="M44.6931 20.145C44.1309 19.5796 44.4823 18.3072 45.4661 17.247C44.0606 17.247 42.9363 16.5401 42.9363 15.7626C42.9363 14.9144 44.0606 14.2782 45.4661 14.2782C44.4823 13.2886 44.1309 12.0163 44.6931 11.3802C45.2553 10.8147 46.5202 11.1681 47.5743 12.1577C47.5743 10.744 48.277 9.61304 49.05 9.61304C49.8933 9.61304 50.5258 10.744 50.5258 12.1577C51.5096 11.1681 52.7745 10.8147 53.407 11.3802C53.9691 11.9456 53.6178 13.2179 52.634 14.2782C54.0394 14.2782 55.1638 14.9851 55.1638 15.7626C55.1638 16.6108 54.0394 17.247 52.634 17.247C53.6178 18.2365 53.9691 19.5089 53.407 20.145C52.8448 20.7105 51.5799 20.3571 50.5258 19.3675C50.5258 20.7812 49.823 21.9121 49.05 21.9121C48.2068 21.9121 47.5743 20.7812 47.5743 19.3675C46.5202 20.3571 45.2553 20.7105 44.6931 20.145ZM47.9257 15.2678C47.9959 15.4092 48.0662 15.5505 48.0662 15.6919C48.0662 15.8333 47.9959 15.9746 47.9257 16.116C48.0662 16.1867 48.2068 16.2574 48.3473 16.3281C48.4878 16.4694 48.5581 16.6108 48.5581 16.7522C48.6987 16.6815 48.8392 16.6108 48.9798 16.6108C49.1203 16.6108 49.2609 16.6815 49.4014 16.7522C49.4717 16.6108 49.5419 16.4694 49.6122 16.3281C49.7528 16.1867 49.8933 16.116 50.0339 16.116C49.9636 15.9746 49.8933 15.8333 49.8933 15.6919C49.8933 15.5505 49.9636 15.4092 50.0339 15.2678C49.8933 15.1971 49.7528 15.1264 49.6122 15.0557C49.4717 14.9144 49.4014 14.773 49.4014 14.6316C49.2609 14.7023 49.1203 14.773 48.9798 14.773C48.8392 14.773 48.6987 14.7023 48.5581 14.6316C48.4878 14.773 48.4176 14.9144 48.3473 15.0557C48.2068 15.1971 48.0662 15.2678 47.9257 15.2678Z" fill="#EB5961"/>
<path fill-rule="evenodd" clip-rule="evenodd" d="M49.0502 17.9539C50.2448 17.9539 51.2286 16.9643 51.2286 15.7626C51.2286 14.561 50.2448 13.5714 49.0502 13.5714C47.8555 13.5714 46.8717 14.561 46.8717 15.7626C46.8014 16.9643 47.7853 17.9539 49.0502 17.9539Z" fill="#FFE400"/>
<path fill-rule="evenodd" clip-rule="evenodd" d="M81.0242 14.773C81.235 17.8831 83.9054 19.7209 86.9271 19.0847C86.5757 15.9746 84.1162 13.9955 81.0242 14.773Z" fill="#CCD133"/>
<path fill-rule="evenodd" clip-rule="evenodd" d="M68.2346 22.4777C68.4454 19.3675 71.1158 17.5297 74.1376 18.1659C73.7159 21.276 71.2564 23.2552 68.2346 22.4777Z" fill="#945CA2"/>
<path fill-rule="evenodd" clip-rule="evenodd" d="M55.7261 0.141317C55.9369 3.25144 58.6073 5.08923 61.629 4.45307C61.2776 1.41364 58.8181 -0.565528 55.7261 0.141317Z" fill="#CCD133"/>
<path fill-rule="evenodd" clip-rule="evenodd" d="M59.8721 17.3177C60.0126 15.6213 61.4181 14.6317 63.0344 14.9851C62.8235 16.6108 61.4883 17.6711 59.8721 17.3177Z" fill="#945CA2"/>
<path fill-rule="evenodd" clip-rule="evenodd" d="M42.9362 9.0476C42.7957 7.35117 41.3902 6.36159 39.7739 6.71501C39.9847 8.34076 41.2497 9.40103 42.9362 9.0476Z" fill="#945CA2"/>
<path fill-rule="evenodd" clip-rule="evenodd" d="M37.174 17.0349C37.0335 18.7314 35.628 19.721 34.0117 19.3675C34.2225 17.7418 35.5577 16.6815 37.174 17.0349Z" fill="#945CA2"/>
</g>
<ellipse opacity="0.1" cx="88" cy="91.5" rx="88" ry="13.5" fill="#945CA2"/>
<defs>
<clipPath id="clip0">
<rect width="139" height="95" fill="white" transform="translate(13)"/>
</clipPath>
</defs>
</svg>
