<svg width="40" height="40" viewBox="0 0 40 40" fill="none" xmlns="http://www.w3.org/2000/svg">
<path opacity="0.6" fill-rule="evenodd" clip-rule="evenodd" d="M5.47079 19.0195L14.7992 22.7802C15.0988 22.953 15.0497 23.254 14.741 23.3477L10.9224 24.1711L9.83057 27.7777C9.74541 28.0457 9.33586 28.0846 9.20663 27.8217L5.03219 19.4176C4.90204 19.175 5.19032 18.928 5.47079 19.0195Z" fill="#828282"/>
<path opacity="0.6" fill-rule="evenodd" clip-rule="evenodd" d="M5.50317 14C8.53859 14 10.9999 16.4668 10.9999 19.5034C11.0008 19.5476 10.993 19.5915 10.9768 19.6326C10.9605 19.6737 10.9363 19.7111 10.9055 19.7427C10.8747 19.7742 10.838 19.7993 10.7974 19.8164C10.7569 19.8336 10.7133 19.8424 10.6693 19.8424C10.6253 19.8424 10.5817 19.8336 10.5411 19.8164C10.5006 19.7993 10.4638 19.7742 10.433 19.7427C10.4022 19.7111 10.378 19.6737 10.3618 19.6326C10.3456 19.5915 10.3377 19.5476 10.3386 19.5034C10.3386 16.8262 8.18306 14.6643 5.50317 14.6643C2.82328 14.6643 0.661281 16.8267 0.661281 19.5034C0.661281 22.1731 2.82328 24.3358 5.50317 24.3358C5.54718 24.3349 5.59093 24.3428 5.63187 24.359C5.6728 24.3753 5.71009 24.3996 5.74154 24.4305C5.773 24.4615 5.79799 24.4984 5.81505 24.5391C5.83211 24.5799 5.8409 24.6237 5.8409 24.6679C5.8409 24.7121 5.83211 24.7558 5.81505 24.7966C5.79799 24.8373 5.773 24.8743 5.74154 24.9052C5.71009 24.9361 5.6728 24.9604 5.63187 24.9767C5.59093 24.993 5.54718 25.0009 5.50317 24.9999C2.46774 24.9999 0 22.5343 0 19.5034C0 16.4663 2.46774 14 5.50317 14Z" fill="#828282"/>
</svg>
