<svg width="15" height="13" viewBox="0 0 15 13" fill="none" xmlns="http://www.w3.org/2000/svg">
<path d="M7.70301 2.35168L7.70301 2.35167C8.2049 1.67325 9.11163 0.85 10.5469 0.85C11.5614 0.85 12.4914 1.25033 13.1619 1.97901L13.0515 2.08057L13.1619 1.97901C13.8005 2.67304 14.15 3.60017 14.15 4.58736C14.15 5.67032 13.7065 6.66768 12.7837 7.71885C11.965 8.65146 10.7911 9.6095 9.44816 10.7056L9.43955 10.7126L9.43536 10.716C8.93344 11.1257 8.41529 11.5486 7.86383 12.0107L7.84729 12.0246L7.84722 12.0247C7.74699 12.1087 7.62287 12.15 7.5 12.15C7.37716 12.15 7.25302 12.1087 7.15276 12.0246L7.15271 12.0246L7.13617 12.0107C6.58317 11.5473 6.06367 11.1233 5.56053 10.7126L5.55173 10.7055C4.20877 9.60938 3.03499 8.65139 2.21635 7.71886C1.29354 6.6677 0.85 5.67032 0.85 4.58736C0.85 3.60017 1.19954 2.67304 1.83808 1.97903L1.83809 1.97903C2.50861 1.25035 3.4386 0.85 4.45312 0.85C5.88837 0.85 6.7951 1.67325 7.29698 2.35167C7.29698 2.35167 7.29698 2.35167 7.29699 2.35167L7.70301 2.35168ZM7.70301 2.35168C7.62911 2.45158 7.56155 2.55152 7.5 2.64951L7.70301 2.35168ZM6.43427 2.95188L6.43427 2.95187C6.06631 2.45445 5.43057 1.87956 4.45312 1.87956C3.74156 1.87956 3.09552 2.159 2.63031 2.66453M6.43427 2.95188L7.86212 3.97303L8.00413 4.02134C8.00413 4.02133 8.00413 4.02132 8.00414 4.02131C8.06254 3.84967 8.23546 3.39828 8.56573 2.95185L8.44514 2.86264L8.56573 2.95185C8.93369 2.45445 9.56943 1.87956 10.5469 1.87956C11.2584 1.87956 11.9045 2.159 12.3697 2.66453C12.8312 3.16612 13.0883 3.84797 13.0883 4.58736C13.0883 5.47158 12.678 6.26157 11.9233 7.10802C11.1663 7.95696 10.0802 8.84395 8.75576 9.92492C8.35169 10.2547 7.93611 10.5939 7.5 10.9561C7.06391 10.5939 6.6483 10.2547 6.24416 9.92488C4.91974 8.84393 3.83364 7.95694 3.07668 7.10801C2.32195 6.26157 1.91172 5.47158 1.91172 4.58736C1.91172 3.84797 2.16877 3.16613 2.63031 2.66453M6.43427 2.95188C6.76454 3.39828 6.93746 3.84967 6.99586 4.02131L6.43427 2.95188ZM2.63031 2.66453L2.51993 2.56296L2.63031 2.66453Z" fill="#696969" stroke="#696969" stroke-width="0.3"/>
</svg>
