<svg width="63" height="63" viewBox="0 0 63 63" fill="none" xmlns="http://www.w3.org/2000/svg">
<g opacity="0.2">
<circle cx="31.5" cy="31.5" r="30" stroke="black" stroke-width="3"/>
<path d="M33.711 32.4998L43.542 22.6688C44.1528 22.0585 44.1528 21.0684 43.542 20.4581C42.9312 19.8473 41.942 19.8473 41.3313 20.4581L31.5003 30.2891L21.6688 20.4581C21.058 19.8473 20.0689 19.8473 19.4581 20.4581C18.8473 21.0684 18.8473 22.0585 19.4581 22.6688L29.2896 32.4998L19.4581 42.3307C18.8473 42.941 18.8473 43.9312 19.4581 44.5415C19.7635 44.8463 20.1637 44.999 20.5634 44.999C20.9632 44.999 21.3634 44.8463 21.6688 44.5409L31.5003 34.71L41.3313 44.5409C41.6367 44.8463 42.0369 44.999 42.4366 44.999C42.8363 44.999 43.2366 44.8463 43.542 44.5409C44.1528 43.9307 44.1528 42.9405 43.542 42.3302L33.711 32.4998Z" fill="black"/>
</g>
</svg>
