<svg width="20" height="20" fill="none" xmlns="http://www.w3.org/2000/svg"><path opacity=".4" d="M12.42 3.49a.86.86 0 00-.33 1.69 3.46 3.46 0 012.75 2.75.86.86 0 101.68-.33 5.17 5.17 0 00-4.1-4.11z" fill="#333"/><path opacity=".4" d="M12.36 0a.85.85 0 00-.95.76c-.05.48.28.9.75.96a6.91 6.91 0 016.13 6.14.86.86 0 101.7-.2A8.62 8.62 0 0012.36.01z" fill="#333"/><path d="M15.6 12.67c-.64-.13-1.16.16-1.61.43-.47.27-1.35.98-1.86.8a11.5 11.5 0 01-6.09-5.92c-.19-.52.53-1.4.8-1.87.26-.46.55-.97.42-1.62C7.14 3.9 5.56 1.9 5 1.36A1.86 1.86 0 003.88.77C2.43.71.81 2.64.53 3.1c-.71.98-.7 2.29.01 3.87 1.74 4.26 8.29 10.69 12.58 12.48.8.37 1.52.55 2.17.55.63 0 1.2-.18 1.69-.53.36-.2 2.38-1.9 2.32-3.38a1.86 1.86 0 00-.58-1.12c-.55-.56-2.53-2.17-3.12-2.3z" fill="#333"/></svg>