<svg width="18" height="18" viewBox="0 0 18 18" fill="none" xmlns="http://www.w3.org/2000/svg">
<path d="M17.3611 2.48311C16.9743 2.44785 16.6323 2.7328 16.597 3.11953L16.5038 4.14151C14.9232 1.65921 12.1794 0 9.00016 0C5.58004 0 2.56598 1.952 1.06976 4.88171C0.893135 5.22755 1.03032 5.65109 1.37616 5.82772C1.72207 6.00435 2.14554 5.8672 2.32217 5.52133C3.58842 3.0419 6.13123 1.40629 9.00016 1.40629C11.615 1.40629 13.9749 2.76796 15.3268 4.90119L14.3242 4.18514C14.0082 3.95947 13.569 4.03267 13.3434 4.34866C13.1177 4.66469 13.1909 5.1038 13.5069 5.32951L16.5471 7.50085C16.9927 7.81849 17.6073 7.52771 17.656 6.99251L17.9974 3.24722C18.0327 2.86046 17.7478 2.51838 17.3611 2.48311Z" fill="white"/>
<path d="M16.6242 12.1726C16.2783 11.996 15.8548 12.1332 15.6782 12.479C14.4119 14.9584 11.8691 16.5941 9.00019 16.5941C6.38531 16.5941 4.02549 15.2324 2.67356 13.0991L3.67613 13.8152C3.99216 14.0409 4.43127 13.9677 4.65698 13.6517C4.88266 13.3357 4.80946 12.8965 4.49347 12.6708L1.45325 10.4995C1.01312 10.185 0.393581 10.4671 0.344361 11.0078L0.00294996 14.7531C-0.0323127 15.1398 0.252636 15.4819 0.63933 15.5172C1.02655 15.5524 1.36817 15.2671 1.4034 14.8808L1.49657 13.8588C3.07716 16.3411 5.82097 18.0003 9.00019 18.0003C12.4203 18.0003 15.4344 16.0483 16.9306 13.1186C17.1072 12.7728 16.97 12.3492 16.6242 12.1726Z" fill="white"/>
</svg>
