<svg width="31" height="29" fill="none" xmlns="http://www.w3.org/2000/svg"><path clip-rule="evenodd" d="M15 27.06a48.89 48.89 0 01-8.45-6.58c-1.81-1.8-3.19-4-4.03-6.42C1.02 9.36 2.78 4 7.72 2.4a8.39 8.39 0 017.6 1.29 8.4 8.4 0 017.62-1.29c4.94 1.6 6.71 6.97 5.2 11.66a16.83 16.83 0 01-4.02 6.42c-2.57 2.5-5.4 4.7-8.45 6.58l-.33.2-.34-.2z" stroke="#fff" stroke-width="3" stroke-linecap="round" stroke-linejoin="round"/><path d="M20.58 7.69a3.9 3.9 0 012.69 3.4" stroke="#fff" stroke-width="1.5" stroke-linecap="round" stroke-linejoin="round"/></svg>