<svg width="23" height="24" viewBox="0 0 23 24" fill="none" xmlns="http://www.w3.org/2000/svg">
<path d="M16.7741 0H6.22589C2.79288 0 0 2.91431 0 6.49658V17.5036C0 21.0857 2.79288 24 6.22589 24H16.7743C20.2071 24 23 21.0857 23 17.5036V6.49658C23 2.91431 20.2071 0 16.7741 0ZM11.5 18.5623C8.03224 18.5623 5.21111 15.6185 5.21111 12C5.21111 8.38147 8.03224 5.43768 11.5 5.43768C14.9678 5.43768 17.7889 8.38147 17.7889 12C17.7889 15.6185 14.9678 18.5623 11.5 18.5623ZM17.9393 6.98529C16.9145 6.98529 16.081 6.11554 16.081 5.0462C16.081 3.97687 16.9145 3.10693 17.9393 3.10693C18.9641 3.10693 19.7977 3.97687 19.7977 5.0462C19.7977 6.11554 18.9641 6.98529 17.9393 6.98529Z" fill="#C9C9C9"/>
<path d="M11.517 8.05703C9.42415 8.05703 7.72129 9.83379 7.72129 12.0178C7.72129 14.2017 9.42415 15.9786 11.517 15.9786C13.6101 15.9786 15.3128 14.2017 15.3128 12.0178C15.3128 9.83379 13.6101 8.05703 11.517 8.05703Z" fill="#C9C9C9"/>
<path d="M17.9664 4.22483C17.548 4.22483 17.2074 4.58029 17.2074 5.01699C17.2074 5.45368 17.548 5.80914 17.9664 5.80914C18.3851 5.80914 18.7257 5.45395 18.7257 5.01699C18.7257 4.58002 18.3851 4.22483 17.9664 4.22483Z" fill="#C9C9C9"/>
</svg>
