<svg width="35" height="36" fill="none" xmlns="http://www.w3.org/2000/svg"><g opacity=".8" fill="#fff"><path d="M17.4 11.3a7.92 7.92 0 00-7.9 7.91c0 4.38 3.52 7.9 7.9 7.9 4.39 0 7.9-3.58 7.9-7.9s-3.57-7.9-7.9-7.9zm0 12.97a5.08 5.08 0 01-5.05-5.06 5.08 5.08 0 015.06-5.06 5.08 5.08 0 015.06 5.06 5.08 5.08 0 01-5.06 5.06zM25.62 12.91a1.79 1.79 0 100-3.58 1.79 1.79 0 000 3.58z"/><path d="M30.25 6.5a8.8 8.8 0 00-6.48-2.54H11.05c-5.37 0-8.95 3.58-8.95 8.95v12.66c0 2.65.86 4.94 2.6 6.6a9 9 0 006.41 2.41h12.6c2.65 0 4.87-.86 6.48-2.4 1.66-1.61 2.53-3.9 2.53-6.55V12.91c0-2.59-.87-4.81-2.47-6.42zM30 25.62c0 1.91-.68 3.46-1.79 4.5a6.38 6.38 0 01-4.5 1.61H11.1c-1.85 0-3.4-.55-4.5-1.6-1.12-1.12-1.67-2.66-1.67-4.57V12.9c0-1.85.55-3.4 1.67-4.5a6.28 6.28 0 014.5-1.6h12.72c1.85 0 3.4.55 4.5 1.66A6.37 6.37 0 0130 12.9v12.72z"/></g></svg>