<svg width="200" height="80" viewBox="0 0 200 80" fill="none" xmlns="http://www.w3.org/2000/svg">
<g opacity="0.8">
<path d="M63 60.6583C63 60.6104 63 60.6104 63 60.6104C63 60.6104 63.6607 60.6104 64.6989 60.4668C62.245 58.073 60.3101 55.9665 59.6494 54.7217C62.2921 57.2113 64.5573 58.9348 66.5393 60.0838C68.191 59.6529 70.173 58.7911 71.8247 57.1155C69.9371 55.6792 66.5393 54.0993 60.7348 52.1364C65.4539 53.1897 69.4652 54.4345 72.8157 55.9665C73.1933 55.4877 73.5236 54.9611 73.8067 54.3866C73.4764 54.3866 73.1461 54.3387 72.7685 54.3387C72.6742 54.3387 72.627 54.3387 72.5326 54.2908C66.8225 53.1418 62.9528 51.8492 60.9236 50.3172C66.1146 51.9449 70.8337 52.4237 74.609 52.2801C75.4112 49.599 76.6854 47.4446 78.0539 45.769C77.6292 45.7211 77.1573 45.6732 76.6854 45.6732C70.7865 45.3381 63.0472 46.2478 61.0652 46.9659C63.991 45.6254 73.4764 43.3273 80.2719 43.4231C82.3011 41.6038 83.9528 40.8378 83.9528 40.8378C83.9528 40.8378 81.6876 39.7846 79.2337 37.295C72.7685 41.939 62.4337 44.9072 61.3483 45.386C69.7955 41.6517 74.7506 37.8695 77.1101 34.7576C76.4494 33.8001 75.836 32.7469 75.3169 31.55H75.2697C72.0135 31.8851 65.0764 36.4811 60.4989 41.0772C65.1236 34.8534 70.173 30.3531 74.6562 29.9701C74.5618 29.7307 74.5146 29.4913 74.4202 29.2519C74.2787 28.7732 74.1371 28.3423 73.9483 27.9114C69.9371 28.7732 64.1326 32.7947 58.8944 41.7475C61.9146 34.1352 66.8225 27.6242 71.5416 24.4165C69.3236 22.31 66.5393 21.544 64.7461 21.2567C64.4157 26.0443 62.1506 31.933 59.6494 36.0503C58.6112 37.6302 57.809 38.9707 57.2899 40.0718C73.5236 9.5751 46.436 8.56972 53.8449 38.3483C48.5124 23.1718 52.382 12.1125 59.9326 13.1179C61.3483 13.3094 62.4337 13.836 63.1888 14.6499C62.8112 13.07 61.9618 11.4422 60.4517 10.006C55.6854 5.60144 47.6629 8.85697 42 0C36.3371 8.85697 28.3618 5.60144 23.5483 10.006C18.7348 14.4584 21 21.0652 21 21.0652C21 21.0652 11.9393 20.778 9.4382 29.2041C6.98427 37.5823 0 40.8378 0 40.8378C0 40.8378 6.98427 44.0934 9.4382 52.4716C11.6562 59.988 19.1596 60.5625 20.7169 60.5625C23.8787 56.6846 31.2876 55.3441 42.8022 53.6685C28.3146 56.4931 19.3483 61.4722 20.8112 66.4033C22.7461 73.1059 41.5753 59.4135 44.6427 55.9186C43.5573 57.4028 42.0944 59.0784 40.2539 60.8498C34.9685 65.9725 28.1258 70.2334 23.2652 70.377C22.9348 70.377 22.6517 70.377 22.3685 70.3291C22.6989 70.76 23.0764 71.2388 23.5483 71.6218C24.6337 72.6272 25.9079 73.2495 27.2764 73.6804L27.6067 73.5847C32.4202 71.8133 39.3101 66.0682 43.5573 61.1849C40.5843 65.8767 35.6764 71.3824 31.7124 74.8294C34.4494 75.4997 37.2809 76.3615 39.8764 78.9467C39.4045 71.7654 44.218 63.3872 47.7573 58.1209C42.8966 67.0257 42.7551 73.7762 42.9438 78.085C42.991 78.851 43.0854 79.4734 43.2742 79.9521C45.1146 77.7498 47.0966 76.5051 49.1258 75.7391C51.0135 71.5739 52.2876 65.1586 51.1551 57.8336C51.7685 58.6475 52.4292 60.9934 52.7596 64.3926C53.1371 68.1747 53.1843 71.6697 52.5708 74.7337C54.6472 74.2549 56.6292 73.8719 58.3753 73.058C55.591 67.1694 53.7978 60.3232 54.0809 57.4985C54.7888 62.9563 57.5258 67.5045 60.8764 71.2866C62.764 69.3716 63.3775 67.0736 63.5191 65.1107C62.1034 61.8073 60.2157 58.5996 57.5258 55.775C59.5551 57.2112 61.3955 58.839 63 60.6583ZM25.3416 66.4033C22.5573 66.6906 21.8966 63.9617 24.0674 62.2861C24.3034 66.5948 32.609 63.0999 38.7438 58.9348C37.7528 60.754 28.5506 66.0682 25.3416 66.4033ZM55.0247 21.2567C57.0539 16.8522 60.4517 18.1448 60.5461 20.9216C55.3079 17.2831 54.9775 28.1508 54.7416 35.6673C53.8921 33.7522 53.5146 24.5123 55.0247 21.2567ZM37.4697 15.5117C38.9798 13.2136 41.4337 13.2136 43.982 15.5117C48.2292 19.8205 50.3056 27.8157 51.2023 39.5931C49.0787 25.1825 44.4067 17.7618 41.2921 18.3363C35.1101 19.4853 45.7281 37.4865 47.6629 39.9282C42.8022 35.38 34.1663 22.0227 37.4697 15.5117ZM20.1034 56.2537C23.973 53.1897 32.1843 51.1789 38.7438 52.9503C32.1371 52.8546 25.3416 54.6738 19.2067 59.3178C16.9416 57.8815 15.9506 55.2962 16.7528 52.7588C18.5933 46.918 26.9461 46.6308 41.2921 51.6577C37.3753 50.4129 14.3933 46.1041 20.1034 56.2537ZM18.8292 36.9599C16.8 40.8857 30.4382 46.7744 41.6225 47.6361C38.8854 48.067 35.6292 47.8276 31.7596 46.9659C21.5191 45.1466 12.5528 40.2154 14.4876 35.1406C17.791 26.6188 38.5079 38.9228 43.0854 44.237C39.4989 41.3645 21.8494 31.1191 18.8292 36.9599ZM27.6539 24.5601C26.7573 19.8205 30.2022 17.8097 35.1573 19.1023C35.5348 26.3794 39.1214 33.5607 45.9169 40.5506C39.2629 35.2843 35.1573 28.6296 33.6472 20.6343C25.1056 21.3046 36.0539 36.2896 44.7371 41.556C36.0067 37.8217 28.9753 31.8851 27.6539 24.5601ZM52.9011 53.7642C52.7596 53.7642 52.6652 53.7642 52.5236 53.7642C50.2112 53.7642 48.3708 51.8492 48.3708 49.5512C48.3708 47.2531 50.2584 45.3381 52.5236 45.3381C53.7506 45.3381 54.8832 45.9126 55.6382 46.7744C55.1191 46.4871 54.5056 46.2956 53.8449 46.2956C51.7685 46.2956 50.1169 48.0191 50.1169 50.0778C50.1169 51.8971 51.2966 53.3333 52.9011 53.7642ZM52.382 43.0401C48.9371 43.0401 46.2 45.8647 46.2 49.3118C46.2 52.8067 48.9843 55.5835 52.382 55.5835C53.9865 55.5835 55.4494 54.9611 56.5348 53.9557C55.2607 55.2962 53.4202 56.158 51.4382 56.158C47.5214 56.158 44.3124 52.9025 44.3124 48.9288C44.3124 44.9551 47.5214 41.6996 51.4382 41.6996C55.3551 41.6996 58.564 44.9551 58.564 48.9288C58.564 48.9767 58.564 49.0724 58.564 49.1203C58.5169 45.769 55.7798 43.0401 52.382 43.0401Z" fill="white"/>
<path d="M97.1131 14.9883L97 14.8808V14.1285L97.1131 14.021C98.7525 14.1285 100.053 14.1285 100.957 14.1285C101.296 14.1285 102.653 14.0748 104.971 14.021C105.706 14.021 106.271 13.9673 106.61 13.9673C107.911 13.9673 108.928 14.1285 109.72 14.3972C110.511 14.6659 111.076 15.1495 111.585 15.8481C112.037 16.5467 112.263 17.3528 112.263 18.2126C112.263 19.3411 111.868 20.3621 111.133 21.3294C110.341 22.2967 109.098 22.9953 107.345 23.3715C108.363 23.479 109.267 23.6402 109.946 23.8014C110.624 24.0164 111.189 24.285 111.698 24.7149C112.207 25.0911 112.603 25.6285 112.885 26.2734C113.168 26.9182 113.338 27.6706 113.338 28.4766C113.338 29.1215 113.224 29.8201 113.055 30.465C112.885 31.1635 112.49 31.8084 111.981 32.507C111.472 33.1519 110.85 33.743 110.115 34.2266C109.38 34.7103 108.645 35.0327 107.854 35.2477C107.063 35.4626 106.045 35.5701 104.858 35.5701C104.632 35.5701 103.953 35.5701 102.766 35.5164C101.466 35.4626 100.788 35.4626 100.675 35.4626C99.9962 35.4626 99.2047 35.5164 98.2437 35.5701L98.1306 35.4626V34.979L98.2437 34.8178C98.809 34.5491 99.1482 34.3878 99.2047 34.2804C99.3178 34.1729 99.3743 33.2593 99.4308 31.5935C99.4874 29.9276 99.4874 28.6378 99.4874 27.7243V22.1355V18.6963C99.4874 17.9439 99.4874 17.3528 99.4308 16.8692C99.4308 16.3855 99.3743 16.0631 99.3743 15.8481C99.3743 15.6869 99.3178 15.5257 99.2613 15.4182C99.2047 15.3645 99.0917 15.3107 98.9221 15.257C98.809 15.2033 98.5263 15.1495 98.2437 15.0958L97.1131 14.9883ZM102.314 22.9416C102.823 22.9953 103.332 22.9953 103.953 22.9953C105.932 22.9953 107.345 22.6192 108.137 21.8668C108.928 21.1145 109.324 20.0935 109.324 18.8037C109.324 18.0514 109.154 17.4065 108.872 16.8692C108.589 16.3318 108.08 15.9556 107.458 15.6332C106.836 15.3645 105.932 15.2033 104.858 15.2033C103.953 15.2033 103.162 15.257 102.484 15.4182C102.37 16.3318 102.37 17.8902 102.37 20.2009V22.9416H102.314ZM102.37 34.0117C103.105 34.1729 103.897 34.2804 104.632 34.2804C105.988 34.2804 107.119 34.0654 107.854 33.5818C108.645 33.0981 109.211 32.4533 109.606 31.6472C110.002 30.8411 110.172 29.9276 110.172 28.9603C110.172 27.5093 109.776 26.3271 108.985 25.4673C108.193 24.6075 106.497 24.1776 103.897 24.1776C103.445 24.1776 102.936 24.1776 102.314 24.2313V29.3902L102.37 34.0117Z" fill="white"/>
<path d="M120.121 21.0071L120.404 21.2221C120.291 22.5655 120.234 24.2314 120.234 26.2735V29.659C120.234 29.8739 120.234 30.5725 120.291 31.8085C120.347 32.9908 120.347 33.7431 120.404 33.9043C120.461 34.1193 120.517 34.2267 120.574 34.3342C120.687 34.4417 120.743 34.4954 120.913 34.4954C121.026 34.4954 121.535 34.5492 122.496 34.6029L122.609 34.7104V35.3552L122.496 35.5702C121.308 35.4627 120.121 35.4627 118.991 35.4627C117.86 35.4627 116.729 35.5165 115.542 35.5702L115.429 35.409V34.7641L115.542 34.6566C116.503 34.6029 117.012 34.5492 117.125 34.4954C117.238 34.4417 117.351 34.388 117.464 34.2805C117.577 34.173 117.634 34.0118 117.634 33.8506C117.69 33.6356 117.69 32.9908 117.747 31.916C117.804 30.7875 117.804 29.9814 117.804 29.3903V26.3809C117.804 25.951 117.804 25.4137 117.747 24.7151C117.69 24.0165 117.69 23.5866 117.634 23.4253C117.634 23.2641 117.521 23.1566 117.408 23.0492C117.295 22.9954 117.012 22.9417 116.673 22.9417H115.429L115.316 22.8342V22.1894L115.429 22.0819C117.295 21.9207 118.821 21.5445 120.121 21.0071ZM118.878 14.2361C119.33 14.2361 119.726 14.3973 120.008 14.7197C120.347 15.0422 120.461 15.4721 120.461 15.9557C120.461 16.4394 120.291 16.8155 120.008 17.138C119.669 17.4604 119.33 17.6216 118.878 17.6216C118.425 17.6216 118.03 17.4604 117.747 17.138C117.408 16.8155 117.238 16.3856 117.238 15.9557C117.238 15.5258 117.408 15.0959 117.747 14.7197C118.03 14.3973 118.425 14.2361 118.878 14.2361Z" fill="white"/>
<path d="M124.813 31.0022H125.435L125.548 31.1635C125.548 32.0233 125.605 32.7219 125.718 33.3667C126 33.8504 126.509 34.2265 127.244 34.549C127.979 34.8714 128.714 34.9789 129.392 34.9789C130.41 34.9789 131.258 34.7102 131.823 34.1191C132.445 33.5279 132.728 32.8293 132.728 32.077C132.728 31.6471 132.615 31.2709 132.389 30.9485C132.162 30.6261 131.823 30.3574 131.371 30.1424C130.919 29.9275 130.127 29.7125 128.94 29.3901C127.923 29.1214 127.244 28.9602 126.848 28.799C126.453 28.6378 126.057 28.4228 125.718 28.1004C125.379 27.7779 125.096 27.4018 124.87 26.9181C124.644 26.4345 124.7 25.8971 124.7 25.3597C124.7 24.0163 125.209 22.9415 126.227 22.0817C127.244 21.2756 128.544 20.8457 130.071 20.8457C130.693 20.8457 131.427 20.9532 132.162 21.1144C132.897 21.2756 133.519 21.4906 133.915 21.6518L134.028 21.8667C133.971 22.2966 133.915 23.3177 133.858 25.0373L133.745 25.1985H133.18L133.067 25.0373C133.01 24.4462 132.954 23.9625 132.897 23.7476C132.841 23.4789 132.671 23.2102 132.389 22.9415C132.106 22.6728 131.71 22.4041 131.201 22.1892C130.693 21.9742 130.127 21.8667 129.562 21.8667C128.997 21.8667 128.488 21.9742 128.092 22.1354C127.696 22.2966 127.357 22.6191 127.131 22.9415C126.905 23.3177 126.735 23.7476 126.735 24.285C126.735 24.6611 126.792 25.0373 126.962 25.306C127.131 25.6284 127.357 25.8434 127.64 26.0583C127.923 26.2195 128.262 26.3807 128.601 26.4345L130.184 26.8644C131.541 27.1868 132.502 27.5093 133.067 27.7779C133.632 28.0466 134.084 28.4228 134.424 28.9064C134.763 29.4438 134.876 30.035 134.876 30.7873C134.876 32.1845 134.311 33.3667 133.236 34.3878C132.162 35.4088 130.749 35.8924 128.997 35.8924C128.375 35.8924 127.64 35.8387 126.735 35.6775C125.831 35.5163 125.039 35.355 124.418 35.1938L124.361 34.9789L124.531 33.9579C124.587 33.6354 124.587 33.313 124.644 32.9906C124.644 32.6681 124.644 32.0233 124.7 31.0022H124.813Z" fill="white"/>
<path d="M140.812 13L141.094 13.1612C140.981 14.3435 140.925 16.6542 140.925 20.1472V23.9089C141.716 23.2103 142.508 22.5117 143.186 21.8131C143.412 21.5981 143.582 21.4907 143.751 21.3832C143.921 21.2757 144.204 21.222 144.656 21.1145C145.052 21.007 145.504 20.9533 145.9 20.9533C146.634 20.9533 147.369 21.1145 148.048 21.4369C148.726 21.7593 149.235 22.1355 149.631 22.5654C149.97 22.9953 150.252 23.479 150.366 24.0701C150.479 24.6612 150.592 25.3598 150.592 26.2196V28.9065C150.592 29.0678 150.592 30.3575 150.648 32.6682C150.705 33.6355 150.761 34.2266 150.987 34.3879C151.157 34.5491 151.779 34.6565 152.796 34.6565L152.909 34.764V35.4089L152.74 35.5701C151.496 35.4626 150.705 35.4626 150.252 35.4626C150.026 35.4626 149.348 35.5164 148.161 35.5701L147.991 35.4089C148.104 34.1192 148.161 32.3995 148.161 30.25V28.2617C148.161 27.0794 148.161 26.2196 148.104 25.6822C148.048 25.1449 147.878 24.715 147.595 24.285C147.313 23.8551 146.974 23.5327 146.521 23.264C146.069 23.0491 145.504 22.8879 144.882 22.8879C144.204 22.8879 143.695 22.9953 143.243 23.1565C142.79 23.3178 142.338 23.6402 141.886 24.1238C141.434 24.5537 141.151 24.9299 141.094 25.2523C140.981 25.5748 140.981 26.1122 140.981 26.972V29.6589C140.981 29.8738 140.981 30.5724 141.038 31.8084C141.094 33.0444 141.094 33.743 141.151 33.9042C141.207 34.1192 141.264 34.2266 141.321 34.3341C141.434 34.4416 141.49 34.4953 141.66 34.4953C141.773 34.4953 142.282 34.5491 143.243 34.6028L143.356 34.7103V35.3551L143.243 35.5701C142.055 35.4626 140.868 35.4626 139.738 35.4626C138.607 35.4626 137.476 35.5164 136.289 35.5701L136.176 35.4089V34.764L136.289 34.6565C137.25 34.6028 137.759 34.5491 137.872 34.4953C137.985 34.4416 138.098 34.3878 138.211 34.2804C138.324 34.1729 138.381 34.0117 138.381 33.8505C138.437 33.6355 138.437 32.9907 138.494 31.9159C138.55 30.7874 138.55 29.9813 138.55 29.3902V21.5981L138.494 18.3738C138.437 17.2453 138.437 16.493 138.381 16.0631C138.324 15.6332 138.324 15.3645 138.268 15.3107C138.211 15.2033 138.098 15.1495 137.985 15.1495C137.816 15.0958 137.25 15.0958 136.233 15.0958L136.12 14.9346V14.236L136.233 14.0748C138.042 13.9136 139.568 13.5374 140.812 13Z" fill="white"/>
<path d="M158.45 13L158.732 13.1612C158.619 14.3435 158.563 16.6542 158.563 20.1472V27.2407C158.902 27.0257 159.524 26.5421 160.485 25.736C161.446 24.9299 162.463 24.0164 163.537 22.9416C164.611 21.8668 165.177 21.3294 165.177 21.222C166.025 21.2757 166.477 21.2757 166.647 21.2757C166.873 21.2757 167.325 21.2757 168.003 21.222L168.116 21.3832V21.9743L168.003 22.1355C167.495 22.1893 167.155 22.243 166.873 22.3505C166.59 22.4579 166.081 22.7804 165.29 23.3715C164.498 23.9626 163.594 24.6612 162.52 25.5748L161.107 26.757C161.615 27.4019 162.52 28.3692 163.82 29.7126C165.12 31.0561 166.138 32.0771 166.929 32.8294C167.721 33.5818 168.229 34.0117 168.456 34.1192C168.682 34.2266 168.964 34.2804 169.247 34.2804V34.9252C168.908 34.979 167.947 35.3014 166.477 35.8388C165.459 34.9252 164.838 34.3341 164.555 34.0117L163.481 32.8832L162.181 31.5397C161.785 31.1098 161.276 30.6262 160.598 29.9813L158.45 27.9393V29.6589C158.45 29.8738 158.45 30.5724 158.506 31.8084C158.563 33.0444 158.563 33.743 158.619 33.9042C158.676 34.1192 158.732 34.2266 158.789 34.3341C158.902 34.4416 158.958 34.4953 159.128 34.4953C159.241 34.4953 159.75 34.5491 160.711 34.6028L160.824 34.7103V35.3551L160.711 35.5164C159.524 35.4089 158.337 35.4089 157.206 35.4089C156.075 35.4089 154.945 35.4626 153.757 35.5164L153.644 35.3551V34.7103L153.757 34.6028C154.719 34.5491 155.227 34.4953 155.34 34.4416C155.453 34.3879 155.566 34.3341 155.68 34.2266C155.793 34.1192 155.849 33.9579 155.849 33.7967C155.906 33.5818 155.906 32.9369 155.962 31.8622C156.019 30.7336 156.019 29.9276 156.019 29.3364V21.5981L155.962 18.3738C155.906 17.2453 155.906 16.493 155.849 16.0631C155.793 15.6332 155.793 15.3645 155.736 15.3107C155.68 15.2033 155.566 15.1495 155.453 15.1495C155.284 15.0958 154.719 15.0958 153.701 15.0958L153.588 14.9346V14.236L153.701 14.0748C155.623 13.9136 157.206 13.5374 158.45 13Z" fill="white"/>
<path d="M182.475 33.2594L182.023 34.3342C181.005 35.0328 180.101 35.4627 179.309 35.6776C178.518 35.8926 177.84 36.0001 177.218 36.0001C176.087 36.0001 174.957 35.7851 173.939 35.3015C172.921 34.8178 172.073 34.0118 171.395 32.8832C170.717 31.7547 170.434 30.4113 170.434 28.7991C170.434 27.7244 170.547 26.7571 170.83 25.951C171.056 25.0912 171.339 24.4463 171.621 24.0702C171.904 23.6403 172.356 23.2104 173.035 22.673C173.713 22.1893 174.391 21.7594 175.126 21.437C175.861 21.1146 176.653 21.0071 177.5 21.0071C178.631 21.0071 179.705 21.2758 180.553 21.8669C181.458 22.458 182.08 23.1566 182.419 24.0702C182.758 24.9837 182.927 25.8973 182.927 26.9183C182.927 27.2407 182.927 27.5094 182.871 27.8318L182.701 27.9931C182.023 28.1543 181.175 28.2618 180.044 28.3155C178.914 28.3692 178.179 28.3692 177.84 28.3692H173.204C173.204 30.465 173.713 32.0234 174.73 32.9907C175.691 33.958 176.935 34.4954 178.348 34.4954C179.027 34.4954 179.649 34.3879 180.271 34.1192C180.892 33.8505 181.571 33.5281 182.249 33.0982L182.475 33.2594ZM173.204 27.0258C173.374 27.0795 174.052 27.0795 175.183 27.1332C176.37 27.187 177.218 27.187 177.783 27.187C179.14 27.187 179.931 27.187 180.214 27.1332C180.214 26.8646 180.214 26.7033 180.214 26.5959C180.214 25.0375 179.931 23.8552 179.309 23.1029C178.688 22.3505 177.896 21.9744 176.822 21.9744C175.691 21.9744 174.787 22.4043 174.109 23.2641C173.487 24.0702 173.204 25.3599 173.204 27.0258Z" fill="white"/>
<path d="M189.146 13L189.429 13.1612C189.316 14.3435 189.259 16.6542 189.259 20.1472V27.2407C189.598 27.0257 190.22 26.5421 191.181 25.736C192.142 24.9299 193.16 24.0164 194.234 22.9416C195.308 21.8668 195.873 21.3294 195.873 21.222C196.721 21.2757 197.173 21.2757 197.343 21.2757C197.569 21.2757 198.021 21.2757 198.7 21.222L198.813 21.3832V21.9743L198.756 22.1355C198.248 22.1893 197.908 22.243 197.626 22.3505C197.343 22.4579 196.834 22.7804 196.043 23.3715C195.251 23.9626 194.347 24.6612 193.273 25.5748L191.859 26.757C192.368 27.4019 193.273 28.3692 194.573 29.7126C195.873 31.0561 196.891 32.0771 197.682 32.8294C198.474 33.5818 198.982 34.0117 199.209 34.1192C199.435 34.2266 199.717 34.2804 200 34.2804V34.9252C199.661 34.979 198.7 35.3014 197.23 35.8388C196.212 34.9252 195.591 34.3341 195.308 34.0117L194.234 32.8832L192.934 31.5397C192.538 31.1098 192.029 30.6262 191.351 29.9813L189.203 27.9393V29.6589C189.203 29.8738 189.203 30.5724 189.259 31.8084C189.316 32.9907 189.316 33.743 189.372 33.9042C189.429 34.1192 189.485 34.2266 189.542 34.3341C189.655 34.4416 189.711 34.4953 189.881 34.4953C189.994 34.4953 190.503 34.5491 191.464 34.6028L191.577 34.7103V35.3551L191.464 35.5164C190.277 35.4089 189.089 35.4089 187.959 35.4089C186.828 35.4089 185.698 35.4626 184.51 35.5164L184.397 35.3551V34.7103L184.51 34.6028C185.471 34.5491 185.98 34.4953 186.093 34.4416C186.206 34.3879 186.319 34.3341 186.432 34.2266C186.546 34.1192 186.602 33.9579 186.602 33.7967C186.659 33.5818 186.659 32.9369 186.715 31.8622C186.772 30.7336 186.772 29.9276 186.772 29.3364V21.5981L186.715 18.3738C186.659 17.2453 186.659 16.493 186.602 16.0631C186.546 15.6332 186.546 15.3645 186.489 15.3107C186.432 15.2033 186.319 15.1495 186.206 15.1495C186.037 15.0958 185.471 15.0958 184.454 15.0958L184.341 14.9346V14.236L184.454 14.0748C186.319 13.9136 187.902 13.5374 189.146 13Z" fill="white"/>
<path d="M102.684 55.7553V58.9441V62.021C102.684 63.1959 102.741 63.9231 102.798 64.3147C102.855 64.7063 102.912 64.9301 103.025 65.042C103.139 65.1539 103.31 65.2658 103.537 65.3217C103.821 65.3777 104.446 65.4336 105.47 65.4896L105.583 65.6014V66.3847L105.47 66.4966C103.025 66.3847 101.604 66.3847 101.263 66.3847C100.979 66.3847 99.5579 66.4406 97.1137 66.4966L97 66.3847V65.6014L97.1137 65.4896C98.0232 65.4336 98.6485 65.3777 98.9327 65.3217C99.2169 65.2658 99.4443 65.1539 99.5579 65.042C99.6716 64.9301 99.7285 64.7063 99.7853 64.4266C99.8422 64.091 99.899 63.4196 99.899 62.3007V58.9441V51.6154L99.8422 48.5385C99.8422 47.3637 99.8422 46.5805 99.7853 46.2448C99.7285 45.9091 99.6716 45.6854 99.5579 45.5735C99.5011 45.4056 99.3306 45.3497 99.0464 45.2378C98.819 45.1819 98.1369 45.1259 97.1137 45.07L97 44.9581V44.1749L97.1137 44.063C101.206 44.1189 103.651 44.1749 104.333 44.1749C106.663 44.1749 108.994 44.1189 111.438 44.063L111.552 44.1749C111.381 44.6784 111.268 45.2938 111.268 45.9651C111.211 46.6364 111.154 47.5875 111.097 48.8182L110.983 48.9301H110.301L110.188 48.8182C110.188 48.7623 110.131 48.3147 110.074 47.5875C110.017 47.028 109.96 46.4686 109.847 45.9651C108.823 45.5735 107.459 45.4056 105.64 45.4056C104.844 45.4056 103.935 45.4616 102.855 45.5735C102.741 46.4126 102.684 48.3707 102.684 51.5595V54.3007C103.935 54.3007 104.731 54.3567 105.185 54.3567C106.038 54.3567 106.72 54.3007 107.289 54.2448C107.857 54.1889 108.255 54.1329 108.369 54.021C108.482 53.9651 108.596 53.8532 108.653 53.6854C108.71 53.5175 108.767 53.1259 108.823 52.5665L108.937 51.7273L109.051 51.6154H109.79L109.903 51.7833L109.79 55.2518C109.79 55.6434 109.79 56.2028 109.847 56.9861C109.903 57.8252 109.903 58.4966 109.903 59L109.79 59.1119H109.051L108.937 58.9441L108.88 57.6014C108.823 57.098 108.823 56.7063 108.71 56.4266C108.653 56.2028 108.539 56.035 108.369 55.9791C108.198 55.9231 107.857 55.8112 107.345 55.7553C106.834 55.6994 105.981 55.6434 104.901 55.6434C103.935 55.6994 103.196 55.6994 102.684 55.7553Z" fill="white"/>
<path d="M118.373 43L118.657 43.1678C118.544 44.3986 118.487 46.8042 118.487 50.4406V60.3427C118.487 60.5664 118.487 61.2937 118.544 62.5804C118.6 63.8671 118.6 64.5944 118.657 64.7622C118.714 64.986 118.771 65.0979 118.828 65.2098C118.941 65.3217 118.998 65.3776 119.169 65.3776C119.339 65.3776 119.794 65.4336 120.76 65.4895L120.874 65.6014V66.2727L120.76 66.4965C119.567 66.3846 118.373 66.3846 117.236 66.3846C116.099 66.3846 114.962 66.4406 113.769 66.4965L113.655 66.3287V65.6573L113.769 65.5455C114.735 65.4895 115.247 65.4336 115.36 65.3776C115.474 65.3217 115.588 65.2657 115.701 65.1538C115.815 65.042 115.872 64.8741 115.872 64.7063C115.929 64.4825 115.929 63.8112 115.986 62.6923C116.042 61.5175 116.042 60.6783 116.042 60.0629V51.951L115.986 48.5944C115.929 47.4196 115.929 46.6364 115.872 46.1888C115.815 45.7413 115.815 45.4615 115.758 45.4056C115.701 45.2937 115.588 45.2378 115.474 45.2378C115.303 45.1818 114.735 45.1818 113.712 45.1818L113.598 45.014V44.2867L113.712 44.1189C115.531 43.951 117.066 43.5594 118.373 43Z" fill="white"/>
<path d="M122.58 59.1679C122.58 57.9372 122.807 56.7064 123.319 55.5316C123.773 54.3567 124.626 53.3498 125.82 52.5106C127.013 51.6714 128.378 51.2239 130.026 51.2239C132.072 51.2239 133.721 51.8952 135.028 53.2938C136.336 54.6924 136.961 56.4826 136.961 58.6644C136.961 61.07 136.222 63.084 134.744 64.5945C133.266 66.1609 131.504 66.9442 129.401 66.9442C128.037 66.9442 126.843 66.5525 125.763 65.7693C124.683 64.9861 123.887 63.9791 123.375 62.8602C122.864 61.7414 122.58 60.5106 122.58 59.1679ZM125.365 58.0491C125.365 59.5036 125.535 60.8463 125.876 62.0211C126.218 63.1959 126.786 64.091 127.525 64.8183C128.264 65.5456 129.173 65.8812 130.14 65.8812C131.277 65.8812 132.243 65.3777 132.982 64.4267C133.721 63.4197 134.119 61.9651 134.119 60.0071C134.119 57.7693 133.721 55.9232 132.925 54.4686C132.129 53.0141 130.936 52.3428 129.401 52.3428C128.15 52.3428 127.127 52.8463 126.445 53.8532C125.706 54.7484 125.365 56.2029 125.365 58.0491Z" fill="white"/>
<path d="M144.123 66.6643L142.134 59.6154C141.793 58.2727 141.395 57.042 141.054 55.9231C140.713 54.8042 140.485 54.0769 140.372 53.7413C140.258 53.4056 140.144 53.1818 140.03 53.0699C139.917 52.958 139.746 52.8461 139.633 52.7902C139.462 52.7343 139.064 52.6783 138.382 52.5664L138.268 52.4545V51.7832L138.382 51.6154C139.064 51.6713 140.144 51.7273 141.622 51.7273C143.214 51.7273 144.407 51.6713 145.203 51.6154L145.317 51.7832V52.4545L145.203 52.5664C144.123 52.5664 143.498 52.6224 143.327 52.7343C143.1 52.8461 143.043 53.014 143.043 53.2937C143.043 53.5175 143.157 54.1888 143.441 55.2517L144.805 60.3427C145.033 61.1259 145.317 62.0769 145.601 63.0839C145.885 62.4126 146.226 61.4615 146.681 60.3427L148.841 55.1399C149.353 53.9091 149.807 52.6783 150.262 51.3916H151.001L152.309 55.1958L153.957 59.7832L155.264 63.2517L156.344 60.1189C156.97 58.3287 157.481 56.8741 157.822 55.6434C158.163 54.4685 158.334 53.6853 158.334 53.3496C158.334 53.014 158.22 52.7902 157.993 52.6783C157.766 52.5664 157.197 52.5105 156.288 52.4545L156.174 52.3427V51.6713L156.288 51.5594C157.424 51.6154 158.334 51.6713 159.13 51.6713C160.096 51.6713 161.006 51.6154 161.858 51.5594L161.972 51.6713V52.3427L161.858 52.5105C161.347 52.5105 161.006 52.6224 160.778 52.6783C160.608 52.7902 160.38 53.014 160.153 53.4615C159.926 53.8531 159.528 54.6923 159.073 55.9231L157.652 59.6154L156.97 61.4056L155.947 64.3147C155.606 65.2098 155.378 65.993 155.264 66.5524H153.9L153.275 64.7063L149.978 55.6434L148.557 58.8881L146.965 62.8042L145.544 66.6643H144.123Z" fill="white"/>
<path d="M175.103 64.0909L174.648 65.2098C173.625 65.9371 172.715 66.3846 171.92 66.6084C171.124 66.8322 170.442 66.9441 169.816 66.9441C168.679 66.9441 167.543 66.7203 166.519 66.2168C165.496 65.7133 164.644 64.8742 163.961 63.6993C163.279 62.5245 162.995 61.1259 162.995 59.4476C162.995 58.3287 163.109 57.3217 163.393 56.4825C163.62 55.5874 163.905 54.9161 164.189 54.5245C164.473 54.077 164.928 53.6294 165.61 53.07C166.292 52.5665 166.974 52.1189 167.713 51.7832C168.452 51.4476 169.248 51.3357 170.101 51.3357C171.237 51.3357 172.317 51.6154 173.17 52.2308C174.08 52.8462 174.705 53.5735 175.046 54.5245C175.387 55.4756 175.557 56.4266 175.557 57.4895C175.557 57.8252 175.557 58.1049 175.501 58.4406L175.33 58.6084C174.648 58.7763 173.795 58.8881 172.658 58.9441C171.522 59 170.783 59 170.442 59H165.78C165.78 61.1818 166.292 62.8042 167.315 63.8112C168.282 64.8182 169.532 65.3777 170.953 65.3777C171.635 65.3777 172.261 65.2658 172.886 64.986C173.511 64.7063 174.193 64.3707 174.875 63.9231L175.103 64.0909ZM165.78 57.6014C165.951 57.6574 166.633 57.6574 167.77 57.7133C168.964 57.7693 169.816 57.7693 170.385 57.7693C171.749 57.7693 172.545 57.7693 172.829 57.7133C172.829 57.4336 172.829 57.2658 172.829 57.1539C172.829 55.5315 172.545 54.3007 171.92 53.5175C171.294 52.7343 170.498 52.3427 169.418 52.3427C168.282 52.3427 167.372 52.7902 166.69 53.6853C166.121 54.5245 165.78 55.8672 165.78 57.6014Z" fill="white"/>
<path d="M182.094 51.3357L182.379 51.5595C182.322 52.1749 182.265 53.2378 182.265 54.8042L183.345 53.2937C183.686 52.7902 184.027 52.3986 184.311 52.1749C184.596 51.8951 184.937 51.6714 185.278 51.5595C185.619 51.3916 186.017 51.3357 186.414 51.3357C186.869 51.3357 187.267 51.4476 187.608 51.6154L187.722 51.8392C187.551 53.2378 187.495 54.4686 187.438 55.5315H186.812C186.414 54.5804 185.789 54.077 184.937 54.077C184.311 54.077 183.8 54.3007 183.345 54.6923C182.89 55.0839 182.606 55.6434 182.435 56.2588C182.265 56.8742 182.208 57.6574 182.208 58.6084V60.3427C182.208 60.6784 182.208 61.4056 182.265 62.6364C182.322 63.8672 182.322 64.5944 182.379 64.7623C182.435 64.9301 182.492 65.0979 182.606 65.1539C182.72 65.2658 182.833 65.3217 182.947 65.3217C183.118 65.3777 183.8 65.4336 185.05 65.4895L185.164 65.6014V66.2728L185.05 66.4406C183.743 66.3287 182.435 66.3287 181.014 66.3287C179.878 66.3287 178.741 66.3846 177.547 66.4406L177.433 66.2728V65.6014L177.547 65.4895C178.513 65.4336 179.025 65.3777 179.139 65.3217C179.252 65.2658 179.366 65.2098 179.48 65.0979C179.593 64.986 179.65 64.8182 179.65 64.6504C179.707 64.4266 179.707 63.7553 179.764 62.6364C179.821 61.4616 179.821 60.6224 179.821 60.007V56.8742C179.821 56.4266 179.821 55.8672 179.764 55.1399C179.707 54.4126 179.707 53.9651 179.65 53.7972C179.65 53.6294 179.536 53.5175 179.423 53.4056C179.309 53.3497 179.025 53.2937 178.684 53.2937H177.433L177.32 53.1818V52.5105L177.433 52.3986C179.252 52.2867 180.844 51.8951 182.094 51.3357Z" fill="white"/>
<path d="M189.768 61.7411H190.394L190.507 61.909C190.507 62.8041 190.564 63.5314 190.678 64.2027C190.962 64.7062 191.474 65.0978 192.212 65.4335C192.951 65.7691 193.69 65.881 194.373 65.881C195.396 65.881 196.248 65.6013 196.817 64.9859C197.442 64.3705 197.726 63.6432 197.726 62.86C197.726 62.4125 197.613 62.0209 197.385 61.6852C197.158 61.3495 196.817 61.0698 196.362 60.846C195.907 60.6223 195.111 60.3985 193.918 60.0628C192.895 59.7831 192.212 59.6153 191.815 59.4474C191.417 59.2796 191.019 59.0558 190.678 58.7202C190.337 58.3845 190.052 57.9929 189.825 57.4894C189.598 56.9859 189.655 56.4265 189.655 55.867C189.655 54.4684 190.166 53.3495 191.189 52.4544C192.212 51.6153 193.52 51.1677 195.055 51.1677C195.68 51.1677 196.419 51.2796 197.158 51.4474C197.897 51.6153 198.522 51.8391 198.92 52.0069L199.034 52.2307C198.977 52.6782 198.92 53.7411 198.863 55.5314L198.749 55.6992H198.181L198.067 55.5314C198.01 54.916 197.954 54.4125 197.897 54.1887C197.84 53.909 197.669 53.6293 197.385 53.3495C197.101 53.0698 196.703 52.7901 196.192 52.5663C195.68 52.3425 195.111 52.2307 194.543 52.2307C193.975 52.2307 193.463 52.3425 193.065 52.5104C192.667 52.6782 192.326 53.0139 192.099 53.3495C191.871 53.7412 191.701 54.1887 191.701 54.7481C191.701 55.1398 191.758 55.5314 191.928 55.8111C192.099 56.1467 192.326 56.3705 192.61 56.5943C192.895 56.7621 193.236 56.93 193.577 56.9859L195.168 57.4335C196.533 57.7691 197.499 58.1048 198.067 58.3845C198.636 58.6642 199.091 59.0558 199.432 59.5593C199.773 60.1188 199.886 60.7342 199.886 61.5174C199.886 62.9719 199.318 64.2027 198.238 65.2656C197.158 66.3286 195.737 66.8321 193.975 66.8321C193.349 66.8321 192.61 66.7761 191.701 66.6083C190.791 66.4404 189.996 66.2726 189.37 66.1048L189.313 65.881L189.484 64.8181C189.541 64.4824 189.541 64.1467 189.598 63.8111C189.598 63.4754 189.598 62.8041 189.655 61.7411H189.768Z" fill="white"/>
</g>
</svg>
