<svg width="200" height="80" fill="none" xmlns="http://www.w3.org/2000/svg"><g opacity=".8" fill="#fff"><path d="M63 60.66v-.05s.66 0 1.7-.14c-2.46-2.4-4.39-4.5-5.05-5.75a38.56 38.56 0 006.89 5.36c1.65-.43 3.63-1.29 5.28-2.96-1.88-1.44-5.28-3.02-11.09-4.98a61.42 61.42 0 0112.09 3.83c.37-.48.7-1 .99-1.58-.33 0-.66-.05-1.04-.05-.1 0-.14 0-.24-.05-5.7-1.15-9.58-2.44-11.6-3.97a41 41 0 0013.68 1.96c.8-2.68 2.08-4.84 3.44-6.51-.42-.05-.9-.1-1.36-.1-5.9-.33-13.64.58-15.62 1.3 2.92-1.34 12.4-3.64 19.2-3.55 2.03-1.82 3.68-2.58 3.68-2.58s-2.26-1.06-4.72-3.55c-6.46 4.65-16.8 7.62-17.88 8.1 8.45-3.74 13.4-7.52 15.76-10.63a18.75 18.75 0 01-1.8-3.21h-.04c-3.26.34-10.2 4.93-14.77 9.53 4.62-6.23 9.67-10.73 14.16-11.11-.1-.24-.15-.48-.24-.72-.14-.48-.28-.9-.47-1.34-4.01.86-9.82 4.88-15.06 13.84 3.02-7.61 7.93-14.13 12.65-17.33-2.22-2.11-5-2.88-6.8-3.16-.32 4.78-2.59 10.67-5.1 14.79a34.9 34.9 0 00-2.35 4.02c16.23-30.5-10.85-31.5-3.45-1.72-5.33-15.18-1.46-26.24 6.1-25.23 1.4.19 2.5.72 3.25 1.53a9.4 9.4 0 00-2.74-4.64C55.7 5.6 47.66 8.86 42 0c-5.66 8.86-13.64 5.6-18.45 10C18.73 14.47 21 21.08 21 21.08s-9.06-.3-11.56 8.13C6.98 37.58 0 40.84 0 40.84s6.98 3.25 9.44 11.63c2.22 7.52 9.72 8.1 11.28 8.1 3.16-3.89 10.57-5.23 22.08-6.9-14.49 2.82-23.45 7.8-21.99 12.73 1.94 6.7 20.77-6.99 23.83-10.48a38.74 38.74 0 01-4.39 4.93c-5.28 5.12-12.12 9.38-16.98 9.53-.34 0-.62 0-.9-.05a9.57 9.57 0 004.9 3.35l.34-.1c4.81-1.77 11.7-7.51 15.95-12.4A69.85 69.85 0 0131.7 74.83c2.74.67 5.57 1.53 8.17 4.12-.48-7.18 4.34-15.56 7.88-20.83-4.86 8.9-5 15.66-4.82 19.96.05.77.15 1.4.33 1.87a13.75 13.75 0 015.86-4.21c1.88-4.17 3.16-10.58 2.03-17.9.6.8 1.27 3.15 1.6 6.55.38 3.78.42 7.28-.19 10.34 2.08-.48 4.06-.86 5.8-1.67-2.78-5.9-4.57-12.74-4.29-15.56.7 5.46 3.45 10 6.8 13.79a9.52 9.52 0 002.64-6.18 31.06 31.06 0 00-6-9.34A31.65 31.65 0 0163 60.66zM25.34 66.4c-2.78.3-3.44-2.44-1.27-4.11.23 4.3 8.54.81 14.67-3.36-.99 1.82-10.19 7.14-13.4 7.47zm29.68-45.14c2.03-4.4 5.43-3.12 5.53-.34-5.24-3.64-5.57 7.23-5.8 14.75-.86-1.92-1.24-11.16.27-14.41zM37.47 15.5c1.51-2.3 3.96-2.3 6.51 0 4.25 4.31 6.33 12.3 7.22 24.08-2.12-14.4-6.8-21.83-9.9-21.25-6.19 1.15 4.43 19.15 6.36 21.59-4.86-4.55-13.5-17.9-10.19-24.42zM20.1 56.25c3.87-3.06 12.08-5.07 18.64-3.3-6.6-.1-13.4 1.72-19.53 6.37a5.63 5.63 0 01-2.46-6.56c1.84-5.84 10.2-6.13 24.54-1.1-3.91-1.25-26.9-5.56-21.19 4.6zm-1.27-19.29c-2.03 3.93 11.6 9.81 22.8 10.68-2.74.43-6 .19-9.87-.67-10.24-1.82-19.2-6.75-17.27-11.83 3.3-8.52 24.02 3.78 28.6 9.1-3.6-2.88-21.24-13.12-24.26-7.28zm8.82-12.4c-.9-4.74 2.55-6.75 7.5-5.46.38 7.28 3.97 14.46 10.77 21.45-6.66-5.27-10.76-11.92-12.27-19.92-8.54.67 2.4 15.66 11.09 20.93-8.73-3.74-15.76-9.67-17.09-17zm25.25 29.2h-.38a4.22 4.22 0 010-8.43c1.23 0 2.36.58 3.12 1.44a3.71 3.71 0 00-1.8-.47 3.76 3.76 0 00-3.72 3.78 3.76 3.76 0 002.78 3.68zm-.52-10.72a6.22 6.22 0 00-6.18 6.27c0 3.5 2.78 6.27 6.18 6.27a6.1 6.1 0 004.15-1.62 7.08 7.08 0 01-5.1 2.2 7.2 7.2 0 01-7.12-7.23 7.2 7.2 0 017.13-7.23 7.2 7.2 0 017.12 7.23v.19a6.18 6.18 0 00-6.18-6.08zM97.11 14.99l-.11-.1v-.76l.11-.1c1.64.1 2.94.1 3.85.1.34 0 1.7-.06 4.01-.1.74 0 1.3-.06 1.64-.06 1.3 0 2.32.16 3.11.43.8.27 1.36.75 1.86 1.45.46.7.68 1.5.68 2.36 0 1.13-.4 2.15-1.13 3.12-.79.97-2.03 1.67-3.78 2.04 1.01.1 1.92.27 2.6.43a4.9 4.9 0 011.75.91c.5.38.9.92 1.19 1.56.28.65.45 1.4.45 2.2 0 .65-.12 1.35-.28 2-.17.7-.57 1.34-1.08 2.04a7.95 7.95 0 01-4.13 2.74c-.79.21-1.8.32-3 .32-.22 0-.9 0-2.08-.05-1.3-.06-1.98-.06-2.1-.06-.67 0-1.47.06-2.43.11l-.1-.1v-.5l.1-.15c.57-.27.9-.43.96-.54.12-.1.17-1.02.23-2.69.06-1.66.06-2.95.06-3.87V18.7c0-.76 0-1.35-.06-1.83 0-.48-.06-.8-.06-1.02a.97.97 0 00-.1-.43.94.94 0 00-.35-.16c-.11-.06-.4-.11-.68-.16l-1.13-.11zm5.2 7.95c.51.06 1.02.06 1.64.06 1.98 0 3.4-.38 4.19-1.13a4.03 4.03 0 001.18-3.07c0-.75-.17-1.4-.45-1.93-.28-.54-.79-.91-1.41-1.24a6.8 6.8 0 00-2.6-.43c-.9 0-1.7.06-2.38.22-.11.91-.11 2.47-.11 4.78v2.74h-.06zm.06 11.07c.73.16 1.53.27 2.26.27 1.36 0 2.49-.21 3.22-.7a4.55 4.55 0 001.76-1.93c.4-.8.56-1.72.56-2.69 0-1.45-.4-2.63-1.19-3.5-.79-.85-2.48-1.28-5.08-1.28-.46 0-.96 0-1.59.05v5.16l.06 4.62zM120.12 21l.28.22c-.1 1.35-.17 3.01-.17 5.05v3.39c0 .21 0 .91.06 2.15.06 1.18.06 1.93.11 2.1.06.2.12.32.17.42.12.11.17.17.34.17.12 0 .63.05 1.59.1l.1.11v.65l-.1.21c-1.2-.1-2.38-.1-3.5-.1-1.14 0-2.27.05-3.46.1l-.11-.16v-.65l.11-.1c.96-.06 1.47-.11 1.58-.16.12-.06.23-.11.34-.22a.6.6 0 00.17-.43c.06-.21.06-.86.12-1.93.05-1.13.05-1.94.05-2.53v-3c0-.44 0-.98-.05-1.67-.06-.7-.06-1.13-.12-1.3 0-.16-.1-.26-.22-.37-.11-.05-.4-.1-.74-.1h-1.24l-.11-.12v-.64l.1-.1c1.88-.17 3.4-.55 4.7-1.08zm-1.24-6.76c.45 0 .85.16 1.13.48.34.32.45.75.45 1.24 0 .48-.17.86-.45 1.18-.34.32-.68.48-1.13.48-.45 0-.85-.16-1.13-.48-.34-.32-.51-.75-.51-1.18 0-.43.17-.86.5-1.24.29-.32.69-.48 1.14-.48zM124.81 31h.63l.1.16c0 .86.06 1.56.18 2.2.28.49.79.87 1.52 1.19a5.3 5.3 0 002.15.43c1.02 0 1.87-.27 2.43-.86.63-.6.9-1.3.9-2.04 0-.43-.1-.8-.33-1.13-.23-.32-.57-.6-1.02-.8-.45-.22-1.24-.44-2.43-.76-1.02-.27-1.7-.43-2.1-.6a3.56 3.56 0 01-1.97-1.87c-.23-.49-.17-1.02-.17-1.56 0-1.34.5-2.42 1.53-3.28a6.05 6.05 0 013.84-1.23 11.1 11.1 0 013.84.8l.12.22c-.06.43-.12 1.45-.17 3.17l-.12.16h-.56l-.11-.16c-.06-.6-.12-1.08-.17-1.3a1.6 1.6 0 00-.51-.8 4.23 4.23 0 00-4.3-.8 2.3 2.3 0 00-1.35 2.14c0 .38.05.76.22 1.03.17.32.4.53.68.75.28.16.62.32.96.37l1.58.43c1.36.33 2.32.65 2.89.92.56.27 1.01.64 1.35 1.13.34.53.46 1.13.46 1.88 0 1.4-.57 2.58-1.64 3.6a5.88 5.88 0 01-4.24 1.5c-.63 0-1.36-.05-2.27-.21-.9-.16-1.7-.33-2.31-.49l-.06-.21.17-1.02c.06-.32.06-.65.11-.97 0-.32 0-.97.06-1.99h.11zM140.81 13l.28.16c-.1 1.18-.16 3.5-.16 6.99v3.76c.79-.7 1.58-1.4 2.26-2.1.22-.21.4-.32.56-.43.17-.1.45-.16.9-.27a4.94 4.94 0 013.4.33c.68.32 1.19.7 1.58 1.13.34.43.62.9.74 1.5.1.6.22 1.29.22 2.15v2.69c0 .16 0 1.45.06 3.76.06.97.11 1.56.34 1.72.17.16.79.27 1.8.27l.12.1v.65l-.17.16c-1.24-.1-2.03-.1-2.49-.1-.22 0-.9.05-2.09.1l-.17-.16c.11-1.3.17-3.01.17-5.16v-1.99c0-1.18 0-2.04-.06-2.58a3 3 0 00-.5-1.4 3.16 3.16 0 00-1.08-1.02 3.84 3.84 0 00-1.64-.37c-.68 0-1.19.1-1.64.27-.45.16-.9.48-1.35.96-.46.43-.74.81-.8 1.13-.1.32-.1.86-.1 1.72v2.69c0 .21 0 .91.05 2.15.05 1.23.05 1.93.11 2.1.06.2.11.32.17.42.11.11.17.17.34.17.11 0 .62.05 1.58.1l.12.11v.65l-.12.21c-1.19-.1-2.37-.1-3.5-.1s-2.26.05-3.45.1l-.11-.16v-.65l.1-.1c.97-.06 1.48-.11 1.6-.16.1-.06.22-.11.33-.22a.6.6 0 00.17-.43c.06-.21.06-.86.11-1.93.06-1.13.06-1.94.06-2.53v-7.8l-.06-3.22c-.05-1.12-.05-1.88-.1-2.3-.07-.44-.07-.7-.12-.76a.31.31 0 00-.28-.16c-.17-.05-.74-.05-1.76-.05l-.11-.17v-.7l.11-.16a14.9 14.9 0 004.58-1.07zM158.45 13l.28.16c-.11 1.18-.17 3.5-.17 6.99v7.1a46.75 46.75 0 004.97-4.3c1.08-1.08 1.65-1.62 1.65-1.73.84.06 1.3.06 1.47.06.22 0 .67 0 1.35-.06l.12.16v.6l-.12.16c-.5.05-.84.1-1.13.21-.28.1-.79.43-1.58 1.02-.8.6-1.7 1.3-2.77 2.2l-1.41 1.19a111.06 111.06 0 005.82 6.07c.8.75 1.3 1.18 1.53 1.29.22.1.5.16.79.16v.65c-.34.05-1.3.37-2.77.9a27.97 27.97 0 01-1.92-1.82l-1.08-1.13-1.3-1.34c-.4-.43-.9-.91-1.58-1.56l-2.15-2.04v1.72c0 .21 0 .91.06 2.15.05 1.23.05 1.93.1 2.1.07.2.12.32.18.42.11.11.17.17.34.17.11 0 .62.05 1.58.1l.11.11v.65l-.1.16c-1.2-.11-2.38-.11-3.51-.11-1.14 0-2.27.05-3.45.1l-.12-.15v-.65l.12-.1c.96-.06 1.47-.11 1.58-.17.11-.05.23-.1.34-.21a.6.6 0 00.17-.43c.06-.22.06-.86.11-1.94.06-1.13.06-1.93.06-2.52V21.6l-.06-3.23c-.05-1.12-.05-1.88-.11-2.3-.06-.44-.06-.7-.11-.76a.31.31 0 00-.29-.16c-.17-.05-.73-.05-1.75-.05l-.11-.17v-.7l.11-.16c1.92-.16 3.5-.53 4.75-1.07zM182.47 33.26l-.45 1.07a9.14 9.14 0 01-2.71 1.35 7.64 7.64 0 01-5.37-.38 5.97 5.97 0 01-2.54-2.42 7.73 7.73 0 01-.97-4.08c0-1.08.12-2.04.4-2.85.23-.86.5-1.5.8-1.88.27-.43.73-.86 1.4-1.4.68-.48 1.36-.91 2.1-1.23a5.82 5.82 0 012.37-.43c1.13 0 2.2.27 3.05.86.9.59 1.53 1.29 1.87 2.2.34.91.5 1.83.5 2.85 0 .32 0 .59-.05.91l-.17.16c-.68.16-1.52.27-2.66.33-1.13.05-1.86.05-2.2.05h-4.64c0 2.1.51 3.65 1.53 4.62a5 5 0 005.54 1.13c.62-.27 1.3-.6 1.98-1.02l.22.16zm-9.27-6.23c.17.05.85.05 1.98.1 1.19.06 2.04.06 2.6.06 1.36 0 2.15 0 2.43-.06v-.53c0-1.56-.28-2.74-.9-3.5a3.01 3.01 0 00-2.49-1.13c-1.13 0-2.03.43-2.71 1.3-.62.8-.9 2.09-.9 3.76zM189.15 13l.28.16c-.11 1.18-.17 3.5-.17 6.99v7.1a46.75 46.75 0 004.98-4.3c1.07-1.08 1.63-1.62 1.63-1.73.85.06 1.3.06 1.47.06.23 0 .68 0 1.36-.06l.11.16v.6l-.05.16c-.51.05-.85.1-1.13.21-.29.1-.8.43-1.59 1.02-.79.6-1.7 1.3-2.77 2.2l-1.41 1.19a111.06 111.06 0 005.82 6.07c.8.75 1.3 1.18 1.53 1.29.22.1.5.16.79.16v.65c-.34.05-1.3.37-2.77.9a27.97 27.97 0 01-1.92-1.82l-1.08-1.13-1.3-1.34c-.4-.43-.9-.91-1.58-1.56l-2.15-2.04v1.72c0 .21 0 .91.06 2.15.06 1.18.06 1.93.11 2.1.06.2.12.32.17.42.12.11.17.17.34.17.11 0 .62.05 1.58.1l.12.11v.65l-.12.16c-1.18-.11-2.37-.11-3.5-.11s-2.26.05-3.45.1l-.11-.15v-.65l.11-.1a8.3 8.3 0 001.58-.17c.12-.05.23-.1.34-.21.12-.11.17-.27.17-.43.06-.22.06-.86.12-1.94.05-1.13.05-1.93.05-2.52V21.6l-.06-3.23c-.05-1.12-.05-1.88-.1-2.3-.06-.44-.06-.7-.12-.76a.31.31 0 00-.28-.16c-.17-.05-.74-.05-1.76-.05l-.1-.17v-.7l.1-.16c1.87-.16 3.45-.53 4.7-1.07zM102.68 55.76v6.26c0 1.18.06 1.9.12 2.3.06.39.11.61.23.72.1.11.28.23.5.28.3.06.92.11 1.94.17l.11.11v.78l-.11.12c-2.44-.12-3.87-.12-4.2-.12-.3 0-1.71.06-4.16.12l-.11-.12v-.78l.11-.11a18.1 18.1 0 001.82-.17c.29-.05.51-.17.63-.28.11-.11.17-.33.23-.61.05-.34.1-1.01.1-2.13V51.62l-.05-3.08c0-1.18 0-1.96-.05-2.3-.06-.33-.12-.55-.23-.67-.06-.16-.23-.22-.51-.33-.23-.06-.91-.11-1.94-.17l-.11-.11v-.79l.11-.1 7.22.1c2.33 0 4.66-.05 7.1-.1l.12.1c-.17.5-.28 1.12-.28 1.8-.06.67-.12 1.62-.17 2.85l-.12.11h-.68l-.11-.11c0-.06-.06-.5-.12-1.23-.05-.56-.11-1.12-.22-1.62-1.03-.4-2.4-.56-4.21-.56-.8 0-1.7.05-2.78.16-.12.84-.18 2.8-.18 5.99v2.74c1.25 0 2.05.06 2.5.06.86 0 1.54-.06 2.1-.12.58-.05.97-.1 1.09-.22a.58.58 0 00.28-.33c.06-.17.12-.56.17-1.12l.12-.84.11-.11h.74l.11.16-.11 3.47c0 .4 0 .95.06 1.74.05.84.05 1.5.05 2.01l-.11.11h-.74l-.11-.17-.06-1.34c-.06-.5-.06-.9-.17-1.17-.06-.23-.17-.4-.34-.45-.17-.06-.51-.17-1.03-.22-.5-.06-1.36-.12-2.44-.12-.97.06-1.7.06-2.22.12zM118.37 43l.29.17a97.91 97.91 0 00-.17 7.27v9.9c0 .23 0 .95.05 2.24.06 1.29.06 2.01.12 2.18.05.23.11.34.17.45.11.11.17.17.34.17s.62.05 1.59.11l.11.11v.67l-.11.23c-1.2-.12-2.39-.12-3.52-.12-1.14 0-2.28.06-3.47.12l-.11-.17v-.67l.1-.11a8.05 8.05 0 001.6-.17c.11-.06.23-.11.34-.23a.63.63 0 00.17-.44c.06-.23.06-.9.12-2.02.05-1.17.05-2.01.05-2.63v-8.1l-.05-3.37c-.06-1.17-.06-1.95-.12-2.4-.06-.45-.06-.73-.11-.78a.31.31 0 00-.29-.17c-.17-.06-.73-.06-1.76-.06l-.11-.17v-.72l.11-.17c1.82-.17 3.36-.56 4.66-1.12zM122.58 59.17c0-1.23.23-2.46.74-3.64a6.68 6.68 0 012.5-3.02 7.06 7.06 0 014.2-1.29c2.05 0 3.7.68 5 2.07a7.53 7.53 0 011.94 5.37c0 2.41-.74 4.42-2.22 5.93a7.05 7.05 0 01-5.34 2.35 6 6 0 01-3.64-1.17 7.36 7.36 0 01-2.39-2.91 8.8 8.8 0 01-.79-3.7zm2.78-1.12c0 1.45.17 2.8.52 3.97a6.27 6.27 0 001.65 2.8 3.64 3.64 0 002.61 1.06c1.14 0 2.1-.5 2.84-1.45.74-1.01 1.14-2.46 1.14-4.42 0-2.24-.4-4.09-1.2-5.54a3.77 3.77 0 00-3.52-2.13 3.4 3.4 0 00-2.96 1.51c-.73.9-1.08 2.35-1.08 4.2zM144.12 66.66l-1.99-7.04c-.34-1.35-.73-2.58-1.08-3.7-.34-1.12-.56-1.84-.68-2.18a1.81 1.81 0 00-.34-.67 1.72 1.72 0 00-.4-.28c-.17-.06-.57-.11-1.25-.22l-.11-.12v-.67l.11-.16a51.55 51.55 0 006.82 0l.12.16v.67l-.12.12a5.4 5.4 0 00-1.87.16c-.23.12-.29.28-.29.56 0 .23.12.9.4 1.96l1.37 5.1.8 2.73c.27-.67.62-1.62 1.07-2.74l2.16-5.2c.51-1.23.97-2.46 1.42-3.75h.74l1.3 3.8 1.66 4.6 1.3 3.46 1.08-3.13c.63-1.8 1.14-3.25 1.48-4.48.34-1.17.51-1.95.51-2.29 0-.34-.11-.56-.34-.67-.22-.11-.8-.17-1.7-.23l-.12-.1v-.68l.12-.11c1.13.06 2.04.11 2.84.11.97 0 1.88-.05 2.73-.11l.11.11v.67l-.11.17c-.51 0-.85.11-1.08.17-.17.11-.4.33-.63.78-.22.4-.62 1.23-1.08 2.46l-1.42 3.7-.68 1.79-1.02 2.9c-.34.9-.57 1.68-.69 2.24h-1.36l-.63-1.84-3.3-9.07-1.41 3.25-1.6 3.91-1.42 3.86h-1.42zM175.1 64.1l-.45 1.11a9.07 9.07 0 01-2.73 1.4 7.46 7.46 0 01-5.4-.4 6.11 6.11 0 01-2.56-2.51 8.28 8.28 0 01-.97-4.25c0-1.12.12-2.13.4-2.97.23-.9.52-1.56.8-1.96.28-.44.74-.9 1.42-1.45.68-.5 1.36-.95 2.1-1.29a5.67 5.67 0 012.4-.44 5.2 5.2 0 013.06.9 4.6 4.6 0 011.88 2.28c.34.96.5 1.9.5 2.97 0 .34 0 .61-.05.95l-.17.17c-.68.17-1.54.28-2.67.33-1.14.06-1.88.06-2.22.06h-4.66c0 2.18.51 3.8 1.53 4.81A4.94 4.94 0 00172.9 65c.62-.28 1.3-.62 1.99-1.07l.22.17zm-9.32-6.5c.17.06.85.06 1.99.11 1.2.06 2.05.06 2.61.06 1.37 0 2.16 0 2.45-.06v-.56c0-1.62-.29-2.85-.91-3.63a3 3 0 00-2.5-1.18c-1.14 0-2.05.45-2.73 1.35-.57.83-.91 2.18-.91 3.91zM182.1 51.34l.28.22c-.06.61-.12 1.68-.12 3.24l1.09-1.5c.34-.51.68-.9.96-1.13.29-.27.63-.5.97-.61.34-.17.74-.22 1.13-.22.46 0 .86.1 1.2.28l.11.22c-.17 1.4-.22 2.63-.28 3.7h-.63c-.4-.96-1.02-1.46-1.87-1.46-.63 0-1.14.22-1.6.61-.45.4-.73.95-.9 1.57-.18.61-.23 1.4-.23 2.35v1.73c0 .34 0 1.07.05 2.3.06 1.23.06 1.95.12 2.12.06.17.11.34.23.4.11.1.22.16.34.16.17.06.85.11 2.1.17l.11.11v.67l-.11.17c-1.3-.11-2.62-.11-4.04-.11-1.13 0-2.27.05-3.46.11l-.12-.17v-.67l.12-.11a8.07 8.07 0 001.59-.17c.11-.05.23-.11.34-.22a.63.63 0 00.17-.45c.06-.22.06-.9.11-2.01.06-1.18.06-2.02.06-2.63v-3.14c0-.44 0-1-.06-1.73-.05-.73-.05-1.17-.11-1.34 0-.17-.11-.28-.23-.4a2 2 0 00-.74-.1h-1.25l-.11-.12v-.67l.11-.11c1.82-.11 3.41-.5 4.66-1.06zM189.77 61.74h.62l.12.17c0 .9.05 1.62.17 2.3.28.5.8.89 1.53 1.22.74.34 1.48.45 2.16.45 1.03 0 1.88-.28 2.45-.9.62-.6.9-1.34.9-2.12 0-.45-.1-.84-.34-1.17a2.56 2.56 0 00-1.02-.84c-.45-.23-1.25-.45-2.44-.79-1.02-.28-1.7-.44-2.1-.61a3.56 3.56 0 01-2-1.96c-.22-.5-.16-1.06-.16-1.62 0-1.4.5-2.52 1.53-3.42a5.95 5.95 0 013.87-1.28 10.88 10.88 0 013.86.84l.11.22c-.05.45-.11 1.51-.17 3.3l-.11.17h-.57l-.11-.17c-.06-.61-.12-1.12-.17-1.34a1.69 1.69 0 00-.52-.84 4.14 4.14 0 00-4.32-.84c-.4.17-.73.5-.96.84a2.7 2.7 0 00-.17 2.46c.17.34.4.56.68.78.28.17.63.34.97.4l1.59.44c1.36.34 2.33.67 2.9.95.57.28 1.02.68 1.36 1.18.34.56.46 1.17.46 1.96 0 1.45-.57 2.68-1.65 3.75a5.8 5.8 0 01-4.27 1.56c-.62 0-1.36-.05-2.27-.22-.9-.17-1.7-.34-2.33-.5l-.06-.23.17-1.06c.06-.34.06-.67.12-1 0-.34 0-1.02.06-2.08h.1z"/></g></svg>