<svg width="200" height="75" fill="none" xmlns="http://www.w3.org/2000/svg"><path d="M59.28 56.9v-.04s.63 0 1.6-.14c-2.3-2.24-4.13-4.22-4.75-5.39a36.28 36.28 0 006.48 5.03c1.56-.4 3.42-1.21 4.98-2.78-1.78-1.35-4.98-2.83-10.44-4.67 4.44.99 8.22 2.15 11.37 3.59.36-.45.67-.94.93-1.48-.3 0-.62-.05-.97-.05-.1 0-.14 0-.23-.04-5.37-1.08-9.01-2.3-10.92-3.73a38.7 38.7 0 0012.88 1.84 17.56 17.56 0 013.24-6.1c-.4-.05-.84-.1-1.29-.1-5.55-.31-12.83.54-14.7 1.22 2.76-1.26 11.68-3.42 18.08-3.33A15.76 15.76 0 0179 38.31s-2.13-.99-4.44-3.33c-6.08 4.36-15.81 7.15-16.83 7.6 7.95-3.5 12.61-7.06 14.83-9.98a17.9 17.9 0 01-1.69-3h-.04c-3.06.31-9.6 4.62-13.9 8.93 4.35-5.84 9.1-10.06 13.32-10.42-.09-.22-.13-.45-.22-.67-.13-.45-.27-.85-.44-1.26-3.78.81-9.24 4.58-14.17 12.98 2.84-7.14 7.46-13.25 11.9-16.26a12.1 12.1 0 00-6.4-2.96c-.3 4.5-2.44 10.02-4.79 13.88a32.7 32.7 0 00-2.22 3.77c15.28-28.6-10.21-29.55-3.24-1.62-5.02-14.23-1.38-24.6 5.73-23.66a4.9 4.9 0 013.06 1.43A8.8 8.8 0 0056.9 9.4C52.4 5.25 44.85 8.3 39.52 0 34.2 8.3 26.7 5.25 22.16 9.39c-4.53 4.17-2.4 10.37-2.4 10.37s-8.53-.27-10.88 7.64A18.26 18.26 0 010 38.3s6.57 3.06 8.88 10.92c2.09 7.05 9.15 7.6 10.61 7.6 2.98-3.65 9.95-4.9 20.79-6.48C26.64 53 18.2 57.66 19.58 62.3c1.82 6.29 19.54-6.56 22.43-9.83a36.39 36.39 0 01-4.13 4.62c-4.97 4.8-11.41 8.8-15.99 8.94-.3 0-.57 0-.84-.05.31.4.66.86 1.1 1.22a9.01 9.01 0 003.52 1.93l.3-.1C30.52 67.38 37 61.99 41 57.4a65.58 65.58 0 01-11.15 12.8c2.58.62 5.24 1.43 7.68 3.86-.44-6.74 4.09-14.6 7.42-19.54-4.57 8.35-4.7 14.69-4.53 18.73.04.72.13 1.3.31 1.75a12.94 12.94 0 015.5-3.95c1.78-3.9 2.98-9.93 1.92-16.8.57.77 1.2 2.97 1.5 6.15.36 3.55.4 6.83-.17 9.7 1.95-.44 3.82-.8 5.46-1.57-2.62-5.52-4.3-11.94-4.04-14.6.67 5.13 3.24 9.4 6.4 12.94a8.92 8.92 0 002.48-5.8c-1.33-3.1-3.1-6.1-5.64-8.75a29.76 29.76 0 015.15 4.58zm-35.43 5.4c-2.62.27-3.25-2.29-1.2-3.86.22 4.04 8.04.76 13.8-3.15-.92 1.71-9.58 6.7-12.6 7.01zm27.93-42.35c1.9-4.13 5.1-2.92 5.2-.31-4.93-3.42-5.25 6.78-5.47 13.83-.8-1.8-1.15-10.47.27-13.52zm-16.52-5.39c1.42-2.15 3.73-2.15 6.13 0 4 4.04 5.95 11.54 6.8 22.6-2-13.53-6.4-20.49-9.33-19.95-5.82 1.08 4.17 17.96 6 20.26-4.58-4.27-12.7-16.8-9.6-22.9zM18.92 52.77c3.64-2.87 11.37-4.76 17.54-3.1a29.31 29.31 0 00-18.39 5.97 5.27 5.27 0 01-2.3-6.15c1.73-5.48 9.59-5.75 23.09-1.03-3.69-1.17-25.32-5.21-19.94 4.31zm-1.2-18.1c-1.91 3.68 10.92 9.2 21.45 10.02-2.58.4-5.64.18-9.28-.63-9.64-1.71-18.08-6.34-16.26-11.1 3.11-7.99 22.6 3.55 26.91 8.54-3.37-2.7-19.98-12.3-22.82-6.83zm8.3-11.63c-.84-4.45 2.4-6.33 7.06-5.12.36 6.83 3.73 13.56 10.13 20.12-6.26-4.94-10.13-11.18-11.55-18.68-8.04.63 2.27 14.68 10.44 19.62-8.22-3.5-14.83-9.07-16.08-15.94zm23.76 27.4h-.36a3.97 3.97 0 010-7.9 3.9 3.9 0 012.94 1.34 3.5 3.5 0 00-1.7-.45 3.54 3.54 0 00-3.5 3.55c0 1.7 1.11 3.05 2.62 3.45zm-.49-10.07a5.84 5.84 0 00-5.82 5.89 5.84 5.84 0 005.82 5.88c1.51 0 2.89-.58 3.91-1.53a6.67 6.67 0 01-4.8 2.07 6.77 6.77 0 01-6.7-6.78 6.77 6.77 0 016.7-6.78c3.69 0 6.7 3.05 6.7 6.78v.18a5.8 5.8 0 00-5.8-5.7z" fill="#5C2985"/><path d="M94.12 12.09l-.12-.12v-.8l.12-.11c1.81.11 3.24.11 4.24.11.37 0 1.87-.06 4.42-.11.81 0 1.44-.06 1.8-.06 1.44 0 2.56.17 3.43.46.88.28 1.5.8 2.06 1.54.5.75.75 1.6.75 2.52 0 1.2-.44 2.29-1.25 3.32-.87 1.03-2.24 1.77-4.17 2.17 1.12.12 2.12.29 2.86.46.75.23 1.37.52 1.93.97.56.4 1 .98 1.31 1.66.31.69.5 1.49.5 2.35 0 .68-.13 1.43-.31 2.11a6.26 6.26 0 01-1.19 2.18 8.63 8.63 0 01-4.54 2.92c-.87.23-2 .34-3.3.34-.25 0-1 0-2.3-.06-1.44-.05-2.19-.05-2.31-.05-.75 0-1.62.05-2.68.11l-.12-.11v-.52l.12-.17c.62-.29 1-.46 1.06-.57.12-.12.19-1.09.25-2.86.06-1.78.06-3.15.06-4.12v-9.62c0-.8 0-1.43-.06-1.94 0-.52-.06-.86-.06-1.09a1 1 0 00-.13-.46 1.05 1.05 0 00-.37-.17 4.54 4.54 0 00-.75-.17l-1.25-.11zm5.73 8.46c.57.06 1.13.06 1.81.06 2.18 0 3.74-.4 4.61-1.2.87-.8 1.3-1.89 1.3-3.26 0-.8-.18-1.49-.49-2.06a3.4 3.4 0 00-1.56-1.32 7.74 7.74 0 00-2.86-.45c-1 0-1.87.05-2.62.22-.12.98-.12 2.64-.12 5.1v2.91h-.07zm.07 11.8c.8.16 1.68.28 2.49.28 1.5 0 2.74-.23 3.55-.75a4.9 4.9 0 001.93-2.06c.44-.85.62-1.83.62-2.86a5.2 5.2 0 00-1.3-3.72c-.88-.91-2.75-1.37-5.61-1.37-.5 0-1.06 0-1.75.06v5.49l.07 4.92zm18.35-14.05l.31.23a65.47 65.47 0 00-.19 5.45v3.65c0 .23 0 .98.07 2.31.06 1.28.06 2.09.12 2.26.06.24.13.35.19.47.12.11.18.17.37.17.12 0 .68.06 1.74.12l.12.11v.7l-.12.23c-1.3-.12-2.6-.12-3.85-.12-1.24 0-2.48.06-3.78.12l-.13-.17v-.7l.13-.11a9.24 9.24 0 001.73-.18c.13-.06.25-.11.38-.23a.63.63 0 00.18-.46c.06-.24.06-.93.13-2.09.06-1.22.06-2.09.06-2.72v-3.25c0-.46 0-1.04-.06-1.8-.06-.75-.06-1.2-.13-1.38 0-.18-.12-.3-.25-.4a2.3 2.3 0 00-.8-.12h-1.37l-.12-.12v-.7l.12-.11c2.05-.18 3.72-.58 5.15-1.16zm-1.36-7.3c.5 0 .93.17 1.24.52.37.35.5.81.5 1.33 0 .53-.2.93-.5 1.28a1.7 1.7 0 01-1.24.52c-.5 0-.93-.17-1.24-.52a1.74 1.74 0 01-.56-1.28c0-.46.19-.92.56-1.33.3-.35.74-.52 1.24-.52zm5.52 18.13h.6l.1.16c0 .85.05 1.55.16 2.2a3 3 0 001.45 1.17c.7.32 1.4.43 2.05.43.96 0 1.77-.27 2.3-.86.6-.59.87-1.28.87-2.03 0-.43-.11-.8-.33-1.13a2.43 2.43 0 00-.96-.8c-.43-.22-1.19-.43-2.31-.75-.97-.27-1.62-.43-2-.6a3.36 3.36 0 01-1.88-1.87c-.21-.48-.16-1.01-.16-1.55 0-1.34.49-2.41 1.45-3.27a5.6 5.6 0 013.66-1.23 10.18 10.18 0 013.66.8l.1.22c-.05.43-.1 1.44-.16 3.16l-.1.16h-.54l-.11-.16a11.4 11.4 0 00-.16-1.29 1.6 1.6 0 00-.49-.8 3.86 3.86 0 00-4.09-.8c-.37.16-.7.48-.9.8a2.62 2.62 0 00-.17 2.36c.16.32.38.53.65.75.27.16.59.32.91.37l1.5.43c1.3.32 2.21.64 2.75.91s.97.64 1.29 1.13c.32.53.43 1.12.43 1.87a4.9 4.9 0 01-1.56 3.59 5.45 5.45 0 01-4.03 1.5c-.6 0-1.3-.05-2.15-.21a29.3 29.3 0 01-2.2-.49l-.06-.21.16-1.02c.06-.32.06-.64.1-.96 0-.32 0-.97.06-1.98h.11zM139.75 10l.29.17a98.26 98.26 0 00-.17 7.43v4c.8-.74 1.6-1.49 2.28-2.23.23-.23.4-.34.58-.46.17-.11.46-.17.91-.28a4.78 4.78 0 013.44.34c.68.34 1.2.74 1.6 1.2.34.46.63.97.74 1.6.12.63.23 1.37.23 2.29v2.85c0 .18 0 1.55.06 4 .06 1.03.11 1.66.34 1.83.18.17.8.29 1.84.29l.11.11v.69l-.17.17c-1.26-.11-2.06-.11-2.52-.11-.23 0-.92.05-2.12.11l-.17-.17c.11-1.37.17-3.2.17-5.49v-2.11c0-1.26 0-2.17-.06-2.74a3.3 3.3 0 00-.51-1.49 3.3 3.3 0 00-1.09-1.09 3.74 3.74 0 00-1.66-.4 3.6 3.6 0 00-3.03 1.31c-.46.47-.75.87-.8 1.2-.12.35-.12.92-.12 1.84v2.85c0 .23 0 .98.06 2.29s.06 2.06.11 2.23c.06.23.12.34.18.46.11.11.17.17.34.17l1.6.11.12.12v.68l-.12.23c-1.2-.11-2.4-.11-3.55-.11-1.14 0-2.29.05-3.49.11l-.11-.17v-.69l.11-.11a8 8 0 001.6-.17c.12-.06.23-.12.35-.23a.65.65 0 00.17-.46c.06-.23.06-.91.11-2.06.06-1.2.06-2.05.06-2.68v-8.29l-.06-3.43c-.05-1.2-.05-2-.11-2.45-.06-.46-.06-.75-.11-.8a.31.31 0 00-.3-.17c-.16-.06-.73-.06-1.77-.06l-.11-.17v-.75l.11-.17a14.5 14.5 0 004.64-1.14zm17.53 0l.3.17a91.84 91.84 0 00-.18 7.34v7.45a50 50 0 005.4-4.52c1.17-1.12 1.78-1.69 1.78-1.8.92.06 1.41.06 1.6.06.24 0 .73 0 1.47-.06l.12.17v.62l-.12.17a5 5 0 00-1.23.23c-.3.1-.86.45-1.72 1.07a58.7 58.7 0 00-3 2.31l-1.54 1.25a119.18 119.18 0 006.32 6.38 9.66 9.66 0 001.66 1.35 2 2 0 00.86.17v.68a27 27 0 00-3 .96 29.98 29.98 0 01-2.1-1.92l-1.16-1.19-1.41-1.4c-.43-.46-.98-.97-1.72-1.65l-2.33-2.14v1.8c0 .23 0 .97.06 2.26.06 1.3.06 2.04.12 2.2.06.23.13.35.19.46.12.11.18.17.36.17l1.72.11.13.11v.68l-.13.17c-1.29-.11-2.57-.11-3.8-.11s-2.46.05-3.75.11l-.12-.17v-.68l.12-.1a9.31 9.31 0 001.72-.18c.13-.05.25-.11.37-.22a.61.61 0 00.19-.46c.06-.22.06-.9.12-2.03.06-1.18.06-2.03.06-2.65v-8.13l-.06-3.4c-.06-1.18-.06-1.97-.13-2.42-.06-.45-.06-.74-.12-.8a.34.34 0 00-.3-.16c-.19-.06-.8-.06-1.9-.06l-.13-.17v-.73l.12-.17c2.09-.17 3.8-.57 5.16-1.13zm24.29 21.26l-.44 1.07a8.63 8.63 0 01-2.6 1.35 7.09 7.09 0 01-5.16-.38 5.85 5.85 0 01-2.45-2.42 7.99 7.99 0 01-.92-4.08c0-1.08.1-2.05.38-2.85.22-.86.49-1.5.76-1.89.27-.43.7-.86 1.36-1.4.65-.48 1.3-.9 2-1.23a5.47 5.47 0 012.29-.43c1.08 0 2.12.27 2.93.86.87.6 1.47 1.3 1.8 2.2.32.92.48 1.83.48 2.85 0 .33 0 .6-.05.92l-.17.16c-.65.16-1.46.27-2.55.32-1.08.06-1.8.06-2.12.06h-4.45c0 2.1.49 3.65 1.47 4.62a4.7 4.7 0 005.32 1.13c.6-.27 1.25-.6 1.9-1.02l.22.16zm-8.9-6.24c.15.06.8.06 1.9.1 1.13.06 1.95.06 2.49.06 1.3 0 2.06 0 2.33-.05v-.54c0-1.56-.27-2.74-.86-3.5a2.85 2.85 0 00-2.4-1.12 3.1 3.1 0 00-2.6 1.29c-.6.8-.87 2.1-.87 3.76zM188.91 10l.29.17a97.28 97.28 0 00-.17 7.34v7.45a48.16 48.16 0 005.08-4.52c1.1-1.12 1.67-1.69 1.67-1.8.87.06 1.33.06 1.5.06.24 0 .7 0 1.4-.06l.1.17v.62l-.05.17c-.52.06-.87.11-1.16.23-.28.1-.8.45-1.61 1.07-.81.62-1.74 1.35-2.83 2.31l-1.45 1.25a113.66 113.66 0 005.95 6.38 9.48 9.48 0 001.56 1.35c.23.12.52.17.81.17v.68c-.35.06-1.33.4-2.83.96a28.95 28.95 0 01-1.96-1.92l-1.1-1.19-1.33-1.4c-.4-.46-.92-.97-1.62-1.65l-2.2-2.14v1.8c0 .23 0 .97.06 2.26.06 1.25.06 2.04.12 2.2.06.23.12.35.17.46.12.11.18.17.35.17l1.62.11.11.11v.68l-.11.17c-1.22-.11-2.43-.11-3.58-.11-1.16 0-2.31.05-3.53.11l-.11-.17v-.68l.11-.1c.99-.07 1.5-.12 1.62-.18.12-.05.23-.11.35-.22a.63.63 0 00.17-.46c.06-.22.06-.9.12-2.03.05-1.18.05-2.03.05-2.65v-8.13l-.05-3.4c-.06-1.18-.06-1.97-.12-2.42-.06-.45-.06-.74-.12-.8a.32.32 0 00-.28-.16c-.18-.06-.75-.06-1.8-.06l-.11-.17v-.73l.12-.17a15.4 15.4 0 004.79-1.13zM99.86 53.99v6.42c0 1.2.06 1.95.12 2.35.05.4.11.63.23.75.12.11.3.23.53.29.3.05.94.11 1.99.17l.12.11v.8l-.12.12c-2.52-.11-3.98-.11-4.34-.11l-4.27.11-.12-.11v-.8l.12-.12c.93-.06 1.58-.12 1.87-.17.3-.06.53-.18.65-.3.11-.1.17-.34.23-.62.06-.35.12-1.03.12-2.18V49.74l-.06-3.15c0-1.2 0-2-.06-2.35-.06-.35-.12-.58-.23-.7-.06-.16-.24-.22-.53-.34-.23-.05-.94-.11-2-.17l-.11-.11v-.8l.12-.12c4.22.06 6.73.11 7.44.11 2.4 0 4.8-.05 7.32-.11l.12.11c-.18.52-.3 1.15-.3 1.84-.05.69-.11 1.66-.17 2.93l-.12.11h-.7l-.12-.11c0-.06-.06-.52-.11-1.27-.06-.57-.12-1.14-.24-1.66a12.5 12.5 0 00-4.33-.57c-.82 0-1.76.05-2.88.17-.11.86-.17 2.87-.17 6.14v2.8c1.29 0 2.1.06 2.58.06.88 0 1.58-.05 2.17-.11.58-.06 1-.12 1.1-.23a.6.6 0 00.3-.34c.06-.18.12-.58.18-1.15l.12-.86.11-.12h.76l.12.18-.12 3.55c0 .4 0 .98.06 1.78.06.86.06 1.55.06 2.06l-.12.12h-.76l-.11-.17-.06-1.38c-.06-.52-.06-.92-.18-1.2-.06-.23-.17-.4-.35-.46a4.93 4.93 0 00-1.06-.23c-.52-.06-1.4-.12-2.52-.12-1 .06-1.75.06-2.28.12zM115.94 42l.23.16c-.1 1.2-.14 3.56-.14 7.12v9.7c0 .22 0 .93.05 2.19.05 1.26.05 1.97.1 2.13.04.22.09.33.13.44.1.11.14.16.28.16s.52.06 1.32.11l.09.11v.66l-.1.22c-.98-.1-1.96-.1-2.9-.1-.94-.01-1.88.05-2.86.1l-.1-.16v-.66l.1-.11c.8-.06 1.22-.11 1.31-.17a.66.66 0 00.42-.65c.05-.22.05-.88.1-1.97a55 55 0 00.05-2.58v-7.94l-.05-3.28c-.05-1.15-.05-1.92-.1-2.36-.04-.44-.04-.71-.09-.77a.25.25 0 00-.23-.16c-.14-.05-.61-.05-1.46-.05l-.09-.17v-.71l.1-.16c1.5-.17 2.76-.55 3.84-1.1zM121 57.09c0-1.26.22-2.51.72-3.7a6.75 6.75 0 012.43-3.08 6.67 6.67 0 014.1-1.31c2 0 3.6.68 4.87 2.1a7.88 7.88 0 011.88 5.47c0 2.45-.72 4.5-2.16 6.04a6.73 6.73 0 01-5.2 2.39c-1.33 0-2.49-.4-3.54-1.2a7.42 7.42 0 01-2.32-2.96 9.29 9.29 0 01-.78-3.75zm2.71-1.14c0 1.48.17 2.84.5 4.04.33 1.2.89 2.1 1.6 2.85.72.74 1.6 1.08 2.55 1.08 1.1 0 2.05-.51 2.77-1.48.72-1.03 1.1-2.5 1.1-4.5 0-2.28-.38-4.16-1.16-5.64a3.65 3.65 0 00-3.43-2.16c-1.22 0-2.21.51-2.88 1.54-.72.9-1.05 2.39-1.05 4.27zM142.93 65l-2.02-7.38c-.34-1.41-.75-2.7-1.09-3.87a96.84 96.84 0 00-.7-2.29 1.92 1.92 0 00-.34-.7 1.75 1.75 0 00-.4-.3c-.17-.05-.57-.11-1.26-.23l-.12-.12v-.7l.12-.18a50.46 50.46 0 006.9 0l.12.18v.7l-.12.12c-1.1 0-1.73.06-1.9.18-.23.11-.28.29-.28.58 0 .24.11.94.4 2.05l1.38 5.34c.23.82.52 1.81.8 2.87.3-.7.64-1.7 1.1-2.87l2.19-5.45a79.1 79.1 0 001.43-3.93h.75l1.33 3.99 1.66 4.8 1.33 3.63 1.1-3.28c.63-1.87 1.14-3.4 1.49-4.69.34-1.23.52-2.05.52-2.4 0-.35-.12-.58-.35-.7-.23-.12-.8-.18-1.72-.24l-.12-.11v-.7l.12-.12c1.15.05 2.07.11 2.87.11.98 0 1.9-.06 2.76-.11l.12.11v.7l-.12.18c-.51 0-.86.12-1.09.18-.17.12-.4.35-.63.82-.23.4-.63 1.29-1.1 2.58l-1.43 3.87-.7 1.87-1.03 3.05c-.35.94-.58 1.76-.7 2.34h-1.37l-.64-1.93-3.33-9.5-1.44 3.4-1.61 4.1-1.44 4.05h-1.44zm31.6-2.92l-.47 1.14c-1.06.75-2 1.2-2.82 1.44a7.78 7.78 0 01-5.59-.4 6.29 6.29 0 01-2.65-2.59c-.7-1.2-1-2.63-1-4.35 0-1.15.12-2.18.41-3.04a6.1 6.1 0 01.83-2.01c.29-.46.76-.92 1.47-1.5.7-.5 1.4-.97 2.17-1.31a5.92 5.92 0 012.47-.46c1.18 0 2.3.29 3.18.92a4.73 4.73 0 011.94 2.35c.35.97.53 1.95.53 3.04 0 .34 0 .63-.06.97l-.18.18c-.7.17-1.58.28-2.76.34-1.18.06-1.94.06-2.3.06h-4.82c0 2.23.53 3.9 1.6 4.93a5.14 5.14 0 005.76 1.2c.64-.28 1.35-.63 2.05-1.09l.24.18zm-9.65-6.66c.18.06.88.06 2.06.12 1.24.05 2.12.05 2.7.05 1.42 0 2.24 0 2.54-.05v-.58c0-1.66-.3-2.92-.94-3.72a3.1 3.1 0 00-2.6-1.2c-1.17 0-2.11.45-2.82 1.37-.58.86-.94 2.24-.94 4.01zM181.05 49l.3.22c-.06.61-.12 1.67-.12 3.22l1.14-1.5a5.08 5.08 0 012.05-1.72c.36-.16.78-.22 1.2-.22.48 0 .9.11 1.26.28l.12.22c-.18 1.39-.24 2.61-.3 3.67h-.66c-.42-.95-1.08-1.45-1.98-1.45-.67 0-1.2.22-1.69.61-.48.4-.78.95-.96 1.56a8.55 8.55 0 00-.24 2.33v1.72c0 .34 0 1.06.06 2.28.06 1.22.06 1.95.12 2.11.06.17.12.34.24.4.12.1.24.16.36.16.18.05.9.11 2.23.17l.11.1v.67l-.11.17c-1.39-.11-2.77-.11-4.27-.11-1.2 0-2.4.05-3.67.11l-.12-.17v-.66l.12-.11a9.06 9.06 0 001.68-.17c.12-.06.24-.11.36-.22a.6.6 0 00.18-.45c.06-.22.06-.89.13-2 .06-1.16.06-2 .06-2.6V54.5c0-.44 0-1-.06-1.72s-.06-1.17-.13-1.34c0-.16-.12-.27-.24-.38a2.24 2.24 0 00-.78-.12h-1.32l-.12-.1v-.67l.12-.11c1.92-.12 3.6-.5 4.93-1.06zm8.42 10.8h.65l.12.17c0 .92.06 1.66.18 2.34.3.52.83.92 1.6 1.26.76.34 1.53.46 2.24.46 1.07 0 1.96-.29 2.55-.92.65-.62.94-1.37.94-2.17 0-.45-.12-.85-.35-1.2-.24-.34-.6-.63-1.07-.85-.47-.23-1.3-.46-2.54-.8-1.06-.29-1.77-.46-2.19-.63a3.72 3.72 0 01-2.07-2c-.23-.52-.18-1.09-.18-1.66a4.4 4.4 0 011.6-3.49 6.26 6.26 0 014.02-1.31 11.94 11.94 0 014.03.86l.11.23c-.06.45-.12 1.54-.18 3.37l-.11.17h-.6l-.11-.17c-.06-.63-.12-1.15-.18-1.37a1.7 1.7 0 00-.53-.86 4.37 4.37 0 00-4.5-.86 2.4 2.4 0 00-1 .86c-.24.4-.42.86-.42 1.43a2.12 2.12 0 00.95 1.88 3 3 0 001 .4l1.66.46c1.42.34 2.43.69 3.02.97a3.7 3.7 0 011.42 1.2c.35.57.47 1.2.47 2 0 1.49-.6 2.74-1.72 3.83a6.1 6.1 0 01-4.43 1.6c-.65 0-1.42-.06-2.37-.23-.94-.17-1.77-.34-2.42-.51l-.06-.23.18-1.09c.06-.34.06-.68.12-1.03 0-.34 0-1.02.05-2.11h.12z" fill="#945CA2"/></svg>