<svg width="17" height="17" fill="none" xmlns="http://www.w3.org/2000/svg"><g opacity=".6" stroke="#fff" stroke-linecap="round" stroke-linejoin="round"><path clip-rule="evenodd" d="M1.37 2.88C1.62 2.46 3 .96 3.98 1c.3.03.56.2.77.41h0c.48.47 1.87 2.27 1.95 2.64.2.93-.9 1.46-.57 2.4a7.82 7.82 0 004.45 4.44c.93.34 1.46-.76 2.39-.57.37.08 2.17 1.47 2.64 1.95v0c.2.21.39.47.41.77.04 1.03-1.57 2.43-1.88 2.61-.73.53-1.7.52-2.87-.02C8 14.27 2.77 9.14 1.4 5.75.86 4.58.83 3.6 1.37 2.88z"/><path d="M10.53 1.2a6.31 6.31 0 015.57 5.56M10.53 4a3.5 3.5 0 012.77 2.77"/></g></svg>