<svg width="20" height="26" viewBox="0 0 20 26" fill="none" xmlns="http://www.w3.org/2000/svg">
<path d="M19.9531 9.96265C19.9531 4.46935 15.4881 0 10 0C4.51186 0 0.046875 4.46935 0.046875 9.96265V15.402C0.046875 15.4075 0.0476685 15.4131 0.0476685 15.4189C0.0476685 15.4302 0.046875 15.4415 0.046875 15.4528C0.046875 17.7788 2.93768 19.6712 5.26172 19.6712C5.68245 19.6712 6.02344 19.33 6.02344 18.9095V11.9961C6.02344 11.5753 5.68245 11.2344 5.26172 11.2344C4.23935 11.2344 3.30089 11.6007 2.57031 12.2091V9.96265C2.57031 5.30922 5.35193 3 10 3C14.6481 3 17.4297 5.30922 17.4297 9.96265V12.2091C16.6991 11.6007 15.7607 11.2344 14.7383 11.2344C14.3176 11.2344 13.9766 11.5753 13.9766 11.9961V18.9095C13.9766 19.33 14.3176 19.6712 14.7383 19.6712C15.7339 19.6712 16.6493 19.3231 17.3712 18.7432C16.9731 21.7312 15.5715 23.0943 12.5656 23.4341C12.5978 23.2917 12.6152 23.1437 12.6152 22.9916C12.6152 21.8855 11.7155 21.9857 10.6094 21.9857H9.39062C8.28455 21.9857 7.38477 22.8855 7.38477 23.9941C7.38477 25.1002 8.28455 26 9.39062 26H11.8184C16.3038 26 19.9531 22.3507 19.9531 17.8653V9.96265Z" fill="#945CA2"/>
</svg>
