<svg width="25" height="30" viewBox="0 0 25 30" fill="none" xmlns="http://www.w3.org/2000/svg">
<circle cx="12.0947" cy="8.57539" r="6.57539" stroke="white" stroke-width="3" stroke-linecap="round" stroke-linejoin="round"/>
<path fill-rule="evenodd" clip-rule="evenodd" d="M1.66482 24.2958C1.66305 23.8336 1.76643 23.377 1.96713 22.9606C2.59696 21.7009 4.37307 21.0333 5.84686 20.731C6.90976 20.5042 7.98734 20.3526 9.07158 20.2775C11.079 20.1012 13.0979 20.1012 15.1053 20.2775C16.1895 20.3535 17.267 20.505 18.33 20.731C19.8038 21.0333 21.5799 21.6379 22.2098 22.9606C22.6134 23.8094 22.6134 24.7948 22.2098 25.6436C21.5799 26.9663 19.8038 27.5709 18.33 27.8606C17.2684 28.0968 16.1904 28.2526 15.1053 28.3267C13.4715 28.4652 11.83 28.4905 10.1927 28.4023C9.81477 28.4023 9.44947 28.4023 9.07158 28.3267C7.99054 28.2536 6.9167 28.0977 5.85946 27.8606C4.37307 27.5709 2.60956 26.9663 1.96713 25.6436C1.76745 25.2224 1.66418 24.762 1.66482 24.2958Z" stroke="white" stroke-width="3" stroke-linecap="round" stroke-linejoin="round"/>
</svg>
