<svg width="25" height="25" viewBox="0 0 25 25" fill="none" xmlns="http://www.w3.org/2000/svg">
<g clip-path="url(#clip0)">
<path d="M24.5565 0.00662187C24.504 -0.00141383 24.4506 -0.00141383 24.3981 0.00662187C19.5471 0.972017 15.0838 3.33354 11.5567 6.80104L6.9469 7.03623C6.81709 7.04211 6.69407 7.09614 6.60196 7.1878L1.86677 11.923C1.66183 12.1262 1.66045 12.4572 1.8637 12.6621C1.96261 12.7618 2.09739 12.8176 2.23785 12.8167H2.27443L7.61067 12.4509C7.40161 12.8899 7.203 13.3394 7.02007 13.8097C6.94422 14.0025 6.9893 14.2218 7.13506 14.369L10.6472 17.8812C10.7944 18.0269 11.0138 18.072 11.2065 17.9962C11.6925 17.808 12.1525 17.5989 12.6072 17.3847L12.2413 22.7784C12.2247 23.0666 12.4449 23.3136 12.7331 23.3302C12.8805 23.3387 13.0246 23.2844 13.1298 23.1808L17.865 18.4456C17.9567 18.3535 18.0107 18.2305 18.0166 18.1007L18.257 13.3969C21.6952 9.87512 24.0358 5.43007 24.9939 0.60244C25.0377 0.31714 24.8418 0.0503936 24.5565 0.00662187ZM3.59673 11.6564L7.203 8.05017L10.5532 7.8777C9.64011 8.94762 8.83967 10.1088 8.16467 11.3428L3.59673 11.6564ZM16.987 17.8341L13.3807 21.4404L13.6943 16.8097C14.9288 16.1315 16.09 15.3276 17.1594 14.4108L16.987 17.8341ZM11.1438 16.8829L8.11763 13.8568C11.9277 4.54843 21.1263 1.80453 23.7971 1.19303C23.196 3.87421 20.4678 13.0676 11.1438 16.8829Z" fill="#5C2985"/>
<path d="M5.77612 14.5832C5.57261 14.3768 5.24034 14.3745 5.03396 14.578L0.18379 19.4073C-0.0359837 19.5944 -0.0623774 19.9243 0.12473 20.1441C0.230175 20.2679 0.38723 20.3356 0.549643 20.3271C0.688537 20.3279 0.822073 20.2734 0.920723 20.1756L5.77089 15.3254C5.97727 15.1219 5.97963 14.7896 5.77612 14.5832Z" fill="#5C2985"/>
<path d="M5.89449 19.113C5.89338 19.1119 5.89227 19.1106 5.89109 19.1094C5.68726 18.9068 5.35799 18.9068 5.15416 19.1094L0.298762 23.9857C0.0503735 24.1328 -0.0316822 24.4534 0.115378 24.7018C0.262438 24.9502 0.583017 25.0322 0.831405 24.8852C0.906993 24.8404 0.970037 24.7774 1.01479 24.7018L5.86496 19.8516C6.07709 19.6557 6.09029 19.3251 5.89449 19.113Z" fill="#5C2985"/>
<path d="M10.3654 19.2296C10.1698 19.062 9.8812 19.062 9.68553 19.2296H9.70121L4.85105 24.0797C4.6318 24.2675 4.60625 24.5974 4.79402 24.8167C4.98178 25.0359 5.3117 25.0615 5.53095 24.8737C5.5514 24.8562 5.57047 24.8371 5.58798 24.8167L10.4225 19.9665C10.6102 19.7473 10.5846 19.4173 10.3654 19.2296Z" fill="#5C2985"/>
<path d="M18.1358 4.53795C16.8542 4.53821 15.8154 5.57737 15.8157 6.85897C15.8158 7.47438 16.0603 8.06452 16.4956 8.49962C16.9299 8.93623 17.5208 9.1809 18.1367 9.17907C19.4183 9.17881 20.457 8.13965 20.4568 6.85805C20.4565 5.57645 19.4174 4.53769 18.1358 4.53795ZM19.0409 7.7836C18.5334 8.27822 17.7243 8.27822 17.2168 7.7836C16.7191 7.28564 16.7191 6.47841 17.2168 5.98046V5.95955C17.7205 5.45585 18.5372 5.45585 19.0409 5.95955C19.5446 6.46326 19.5446 7.27989 19.0409 7.7836Z" fill="#5C2985"/>
</g>
<defs>
<clipPath id="clip0">
<rect width="25" height="25" fill="white"/>
</clipPath>
</defs>
</svg>
