<svg width="14" height="12" viewBox="0 0 14 12" fill="none" xmlns="http://www.w3.org/2000/svg">
<path d="M13.3913 1.2C13.0552 1.2 12.7826 1.46865 12.7826 1.8V4.11465L10.3912 1.75725C9.28976 0.6714 7.76787 0 6.08696 0C2.72528 0 0 2.68635 0 6C0 9.3138 2.72528 12 6.08696 12C9.03183 12 11.4879 9.9387 12.0519 7.2H10.8031C10.2625 9.2703 8.35587 10.8 6.08696 10.8C3.39759 10.8 1.21739 8.65095 1.21739 6C1.21739 3.34905 3.39759 1.2 6.08696 1.2C7.43233 1.2 8.65033 1.73775 9.53156 2.6073L11.7562 4.8H9.73913C9.40298 4.8 9.13043 5.06865 9.13043 5.4C9.13043 5.73135 9.40298 6 9.73913 6H12.9736H13.3913C13.7275 6 14 5.73135 14 5.4V1.8C14 1.46865 13.7275 1.2 13.3913 1.2Z" fill="white"/>
</svg>
