<svg width="26" height="26" fill="none" xmlns="http://www.w3.org/2000/svg"><g clip-path="url(#clip0)"><path d="M13 26a13 13 0 100-26 13 13 0 000 26z" fill="#41B4E6"/><path d="M26 13c0-.32-.01-.63-.03-.94l-5.4-5.39-15.15 5.96 5.8 5.8.08.27.1-.1-.1.1 6.41 6.42A13 13 0 0026 13z" fill="#0091C8"/><path d="M11.74 14.9l5.87 4.43 2.97-12.66-15.16 5.96 4.61 1.53 8.42-5.65-6.71 6.38z" fill="#fff"/><path d="M10.03 14.16l1.27 4.54.44-3.8 6.71-6.39-8.42 5.65z" fill="#D2D2D7"/><path d="M13.65 16.34L11.3 18.7l.44-3.8 1.9 1.44z" fill="#B9B9BE"/></g><defs><clipPath id="clip0"><path fill="#fff" d="M0 0h26v26H0z"/></clipPath></defs></svg>