<svg width="33" height="21" viewBox="0 0 33 21" fill="none" xmlns="http://www.w3.org/2000/svg">
<path d="M0.471521 3.0916C0.842912 4.196 1.30069 5.26095 1.77317 6.31276C2.89588 8.8118 4.05207 11.2401 5.60222 13.4366C7.16876 15.6563 9.01829 17.8074 11.197 19.2433C11.803 19.6427 12.44 19.9796 13.1035 20.2357C15.6636 21.2236 18.4715 21.1296 19.3387 20.471C20.2058 19.8123 19.1735 15.4844 19.9581 14.967C20.7427 14.4495 22.1466 15.5785 23.1789 16.6135C24.2112 17.6484 24.9958 18.5422 25.5739 19.2478C25.936 19.6897 26.1908 20.2171 26.6628 20.5323C27.4435 21.0535 28.4837 20.9958 29.3546 20.9985C29.84 21.0001 30.3256 21.002 30.8111 20.995C31.1393 20.9904 31.4675 21.0025 31.7954 20.9844C32.3342 20.9547 33.0388 20.7123 32.9983 19.9444C32.9888 19.7629 32.9534 19.5457 32.8901 19.3781C32.754 19.018 32.5623 18.6442 32.3562 18.3304C31.2827 16.6957 30.5704 15.8608 30.0336 15.2021C29.4967 14.5436 27.2875 12.1679 27.143 11.6975C26.9985 11.227 26.952 11.0183 27.3624 10.3833C27.7728 9.74812 28.6709 8.14578 29.3729 6.9933C29.8132 6.27045 30.2131 5.51464 30.6083 4.75916C31.0741 3.86845 31.5123 2.95615 31.8857 2.01017C32.0527 1.58718 32.2042 1.20183 32.1008 0.727844C32.0315 0.4103 31.8748 0.131329 31.5829 0.0529735C31.4235 0.0102239 31.2496 0.00588163 31.0865 0.00588163C30.4775 0.00588163 28.8877 0.00588163 28.8877 0.00588163C28.6003 0.00588163 28.3129 0.00110177 28.0255 0.0017062C27.7308 0.00231063 27.4337 -0.000327686 27.1399 0.0283552C26.7219 0.0691266 26.4658 0.436346 26.2555 0.806586C25.9983 1.25963 25.7642 1.73098 25.5147 2.18974C25.3441 2.50322 25.1771 2.81917 25.0132 3.13721C24.757 3.63394 24.493 4.12534 24.2291 4.61679C24.1196 4.82065 24.0097 5.02429 23.9017 5.22924C23.592 5.81713 20.9079 9.83928 20.3711 10.004C19.8344 10.1687 19.6485 10.1217 19.6485 8.87499C19.6485 7.62838 19.6485 0.548549 19.6485 0.548549C19.6485 0.548549 19.6073 0.00264022 19.1531 0.00264022C18.6988 0.00264022 16.592 0.00264022 16.592 0.00264022H12.2467C12.2467 0.00264022 11.2247 0.00747575 11.5861 1.05424C11.9474 2.10094 13.0159 2.41849 13.0159 4.1649C13.0159 5.91126 13.0159 11.0095 13.0159 11.0095C13.0159 11.0095 12.8352 12.5443 11.6687 11.2741C10.7494 10.2732 9.99201 9.08984 9.32278 7.86285C8.62698 6.58723 8.06642 5.26199 7.56712 3.87351C7.4243 3.4764 7.28288 3.07863 7.13621 2.68339C6.98312 2.27079 6.83142 1.85747 6.6846 1.44195C6.5141 0.959286 6.33169 0.328428 5.87193 0.106218C5.6408 -0.00549155 5.38517 2.87611e-06 5.1388 5.78242e-05C4.22513 0.000332564 3.31151 0.00324499 2.39788 0.00126686C2.12981 0.000717375 1.86173 0.000386909 1.59365 0.00115618C0.960696 0.00285957 0.173444 -0.0184056 0.0232955 0.882413C-0.0632338 1.40129 0.108764 1.95516 0.252738 2.44112C0.317997 2.66207 0.398497 2.87439 0.471521 3.0916Z" fill="#C9C9C9"/>
</svg>
