<svg width="27" height="28" fill="none" xmlns="http://www.w3.org/2000/svg"><path d="M0 28l1.86-7A14.52 14.52 0 010 13.9C0 6.28 6.05 0 13.45 0 20.85 0 27 6.28 27 13.9 27 21.53 20.86 28 13.45 28a13.2 13.2 0 01-6.56-1.93L0 28z" fill="#EDEDED"/><path d="M7.26 23.56l.42.24a10.77 10.77 0 005.82 1.79c6.1 0 11.17-5.27 11.17-11.69S19.6 2.41 13.45 2.41c-6.14 0-11.12 5.12-11.12 11.5 0 2.21.6 4.39 1.72 6.22l.28.44-1.07 4.05 4-1.06z" fill="#55CD6C"/><path d="M9.87 7.43l-.89-.04c-.27 0-.55.1-.74.29a4.01 4.01 0 00-1.3 2.07c-.33 1.45.18 3.19 1.4 4.93a14.17 14.17 0 007.63 5.74c1.3.39 2.32.15 3.16-.39a2.85 2.85 0 001.21-1.83l.14-.68a.5.5 0 00-.23-.53l-2.93-1.4a.43.43 0 00-.56.15l-1.17 1.54c-.09.1-.23.15-.37.1a9.12 9.12 0 01-4.89-4.35c-.04-.14-.04-.29.05-.38l1.12-1.3c.1-.15.14-.34.1-.49l-1.36-3.14c-.05-.14-.18-.29-.37-.29z" fill="#FEFEFE"/></svg>