<svg width="22" height="21" viewBox="0 0 22 21" fill="none" xmlns="http://www.w3.org/2000/svg">
<path fill-rule="evenodd" clip-rule="evenodd" d="M15.235 0.27291C15.9291 0.27291 16.6221 0.370001 17.281 0.589273C21.3411 1.89836 22.8041 6.31655 21.582 10.1784C20.889 12.1518 19.756 13.9529 18.2721 15.4245C16.148 17.4645 13.8171 19.2755 11.308 20.8355L11.033 21.0002L10.747 20.8245C8.22912 19.2755 5.88502 17.4645 3.74112 15.4136C2.26712 13.942 1.13302 12.1518 0.429018 10.1784C-0.813982 6.31655 0.649019 1.89836 4.75312 0.566364C5.07212 0.457273 5.40102 0.38091 5.73102 0.338364H5.86302C6.17212 0.293637 6.47902 0.27291 6.78702 0.27291H6.90802C7.60102 0.293637 8.27202 0.413637 8.92212 0.63291H8.98702C9.03102 0.653637 9.06402 0.676546 9.08602 0.697273C9.32912 0.774728 9.55902 0.862001 9.77902 0.982001L10.197 1.16746C10.298 1.22088 10.4114 1.30251 10.5094 1.37306C10.5715 1.41776 10.6274 1.45801 10.67 1.48382C10.688 1.49432 10.7062 1.50489 10.7246 1.51553C10.8189 1.57014 10.9172 1.62701 11 1.69C12.2221 0.763819 13.706 0.262001 15.235 0.27291ZM18.161 8.12746C18.612 8.11546 18.997 7.75655 19.03 7.29727V7.16746C19.063 5.63909 18.1291 4.25473 16.709 3.72018C16.258 3.56636 15.763 3.80746 15.598 4.26564C15.444 4.72382 15.686 5.22564 16.148 5.38818C16.8531 5.65 17.325 6.33836 17.325 7.10091V7.13473C17.3041 7.38455 17.38 7.62564 17.534 7.81109C17.688 7.99655 17.919 8.10455 18.161 8.12746Z" fill="#DBDBDB"/>
</svg>
